<svg width="782" height="525" viewBox="0 0 782 525" fill="none" xmlns="http://www.w3.org/2000/svg">
<g clip-path="url(#clip0)">
<path d="M365.273 246.971H10.7083C7.86927 246.968 5.14737 245.838 3.13984 243.829C1.13232 241.82 0.00314306 239.096 4.57764e-05 236.255V10.7161C0.00315628 7.87498 1.13234 5.15111 3.13986 3.14212C5.14738 1.13313 7.86928 0.00311542 10.7083 0H365.273C368.113 0.00310485 370.834 1.13312 372.842 3.14212C374.85 5.15112 375.979 7.87501 375.982 10.7162V236.255C375.979 239.096 374.85 241.82 372.842 243.829C370.834 245.838 368.113 246.968 365.273 246.971V246.971ZM10.7083 2.38132C8.50025 2.384 6.38337 3.26299 4.82201 4.82549C3.26066 6.38798 2.38231 8.50641 2.37964 10.7161V236.255C2.38231 238.464 3.26064 240.583 4.822 242.145C6.38335 243.708 8.50025 244.587 10.7083 244.589H365.273C367.482 244.587 369.598 243.708 371.16 242.145C372.721 240.583 373.599 238.464 373.602 236.255V10.7161C373.599 8.50641 372.721 6.38798 371.16 4.82549C369.598 3.26299 367.482 2.38399 365.273 2.38132H10.7083Z" fill="#CCCCCC"/>
<path d="M216.854 209.943C253.277 209.943 282.804 180.395 282.804 143.945C282.804 107.495 253.277 77.9467 216.854 77.9467C180.431 77.9467 150.904 107.495 150.904 143.945C150.904 180.395 180.431 209.943 216.854 209.943Z" fill="#E9DFEE"/>
<path d="M724.821 522.889C727.312 496.037 734.194 469.775 745.191 445.155C748.255 438.303 751.629 431.602 755.311 425.052C756.257 423.367 753.668 421.852 752.722 423.538C739.333 447.395 729.952 473.291 724.956 500.193C723.567 507.705 722.522 515.271 721.823 522.889C721.645 524.811 724.644 524.799 724.821 522.889H724.821Z" fill="#E6E6E6"/>
<path d="M762.571 429.863C773.057 429.863 781.558 421.357 781.558 410.863C781.558 400.37 773.057 391.863 762.571 391.863C752.086 391.863 743.585 400.37 743.585 410.863C743.585 421.357 752.086 429.863 762.571 429.863Z" fill="#E6E6E6"/>
<path d="M726.763 523.394C728.379 505.973 732.844 488.936 739.978 472.964C741.966 468.519 744.155 464.172 746.543 459.922C746.663 459.7 746.692 459.44 746.624 459.197C746.555 458.954 746.396 458.747 746.178 458.619C745.96 458.492 745.701 458.454 745.456 458.514C745.211 458.574 744.999 458.726 744.864 458.94C736.177 474.417 730.092 491.218 726.851 508.67C725.949 513.544 725.272 518.452 724.818 523.394C724.703 524.641 726.648 524.633 726.763 523.394V523.394Z" fill="#E6E6E6"/>
<path d="M751.254 463.044C758.056 463.044 763.571 457.525 763.571 450.717C763.571 443.91 758.056 438.391 751.254 438.391C744.451 438.391 738.936 443.91 738.936 450.717C738.936 457.525 744.451 463.044 751.254 463.044Z" fill="#E6E6E6"/>
<path d="M724.308 522.23C714.876 507.5 707.925 491.319 703.733 474.333C702.569 469.605 701.623 464.83 700.894 460.009C700.852 459.76 700.715 459.538 700.512 459.388C700.309 459.238 700.055 459.173 699.805 459.207C699.555 459.24 699.328 459.37 699.171 459.568C699.015 459.766 698.941 460.017 698.966 460.268C701.63 477.818 707.157 494.811 715.328 510.567C717.613 514.964 720.095 519.251 722.775 523.428C723.45 524.481 724.979 523.278 724.308 522.231V522.23Z" fill="#E6E6E6"/>
<path d="M698.951 462.178C705.753 462.178 711.268 456.66 711.268 449.852C711.268 443.045 705.753 437.526 698.951 437.526C692.148 437.526 686.634 443.045 686.634 449.852C686.634 456.66 692.148 462.178 698.951 462.178Z" fill="#E6E6E6"/>
<path d="M625.772 344.491C626.581 343.264 627.111 341.874 627.325 340.42C627.539 338.965 627.432 337.482 627.011 336.073C626.59 334.665 625.866 333.366 624.889 332.268C623.912 331.17 622.707 330.3 621.357 329.718L623.946 294.077L607.755 303.15L607.779 335.604C606.953 337.937 607.012 340.492 607.943 342.785C608.874 345.078 610.613 346.95 612.831 348.045C615.049 349.141 617.591 349.384 619.976 348.729C622.361 348.074 624.423 346.566 625.772 344.491V344.491Z" fill="#FFB8B8"/>
<path d="M621.744 205.945L626.171 319.363L608.184 318.363L604.187 199.363L607.98 197.577C609.423 196.897 611.012 196.586 612.605 196.67C614.198 196.755 615.745 197.233 617.108 198.062C618.471 198.891 619.608 200.044 620.417 201.42C621.226 202.795 621.682 204.35 621.744 205.945Z" fill="#6C63FF"/>
<path d="M566.117 512.201H553.867L548.038 464.913H566.119L566.117 512.201Z" fill="#FFB8B8"/>
<path d="M545.115 508.698H568.742V523.584H530.24C530.24 521.63 530.624 519.694 531.372 517.888C532.119 516.081 533.215 514.44 534.597 513.058C535.978 511.676 537.618 510.579 539.423 509.831C541.228 509.083 543.162 508.698 545.115 508.698V508.698Z" fill="#2F2E41"/>
<path d="M668.045 497.55L656.929 502.7L631.786 462.239L648.195 454.637L668.045 497.55Z" fill="#FFB8B8"/>
<path d="M647.517 503.2L668.958 493.267L675.207 506.777L640.267 522.964C639.446 521.19 638.983 519.271 638.903 517.318C638.823 515.364 639.128 513.414 639.802 511.579C640.475 509.744 641.503 508.059 642.827 506.622C644.15 505.184 645.744 504.021 647.517 503.2V503.2Z" fill="#2F2E41"/>
<path d="M537.028 357.874L549.663 502.163L566.65 500.163L579.205 368.363L648.591 494.163L666.578 489.163C666.578 489.163 608.684 315.863 604.187 301.363C599.258 285.468 560.219 279.363 560.219 279.363L558.72 277.863C541.946 300.461 535.227 329.782 537.028 357.874Z" fill="#E9DFEE"/>
<path d="M604.336 185.059C617.891 185.059 628.879 174.062 628.879 160.498C628.879 146.933 617.891 135.937 604.336 135.937C590.781 135.937 579.793 146.933 579.793 160.498C579.793 174.062 590.781 185.059 604.336 185.059Z" fill="#FFB8B8"/>
<path d="M621.61 198.163L602.688 296.863C602.688 296.863 576.767 291.683 567.534 285.443C563.877 282.963 560.559 280.403 557.761 278.083C554.614 275.497 551.599 272.753 548.728 269.863C548.728 269.863 555.363 237.253 557.731 228.523C560.481 218.411 569.915 206.632 577.263 198.606C579.927 195.698 583.332 193.57 587.112 192.451C590.892 191.331 594.905 191.261 598.722 192.25L621.61 198.163Z" fill="#6C63FF"/>
<path opacity="0.2" d="M567.534 285.443C563.877 282.963 560.559 280.403 557.761 278.083C558.77 263.143 580.764 231.863 589.678 231.863C589.678 231.863 591.786 280.073 567.534 285.443Z" fill="black"/>
<path d="M522.263 324.68C523.644 324.179 524.898 323.381 525.938 322.343C526.977 321.304 527.777 320.05 528.279 318.668C528.782 317.287 528.976 315.812 528.848 314.348C528.719 312.883 528.271 311.465 527.536 310.192L550.878 283.149L532.477 280.752L513.132 306.8C511.078 308.178 509.6 310.263 508.979 312.659C508.357 315.054 508.636 317.595 509.761 319.799C510.887 322.003 512.781 323.717 515.085 324.617C517.389 325.517 519.943 325.539 522.263 324.68V324.68Z" fill="#FFB8B8"/>
<path d="M587.521 193.388C586.505 193.409 585.492 193.525 584.497 193.735C582.483 194.195 580.614 195.149 579.059 196.51C577.504 197.872 576.31 199.598 575.586 201.534L546.729 261.863L515.752 294.863L531.24 307.363L580.205 263.363L599.766 210.082C600.391 208.158 600.549 206.112 600.228 204.115C599.907 202.117 599.115 200.225 597.919 198.594C596.723 196.963 595.156 195.641 593.348 194.735C591.54 193.83 589.543 193.368 587.521 193.388V193.388Z" fill="#6C63FF"/>
<path d="M605.789 184.833C609.282 179.6 612.039 172.345 608.193 167.367C604.396 162.453 596.909 163.177 591.095 161.002C582.997 157.973 578.3 148.453 579.765 139.926C581.23 131.4 588.069 124.332 596.217 121.44C604.365 118.548 613.552 119.489 621.531 122.819C631.354 126.919 639.779 134.849 643.312 144.895C646.846 154.941 644.957 167.003 637.627 174.725C629.769 183.003 617.436 185.209 606.028 185.075" fill="#2F2E41"/>
<path d="M644.33 155.873C645.329 161.464 651.458 164.64 657.091 165.338C662.724 166.035 668.55 165.141 674.034 166.607C683.701 169.191 690.077 178.495 693.586 187.872C697.096 197.249 698.652 207.37 703.212 216.284C707.772 225.197 716.613 233.055 726.584 232.221C724.631 237.143 721.207 241.341 716.782 244.244C712.356 247.147 707.143 248.613 701.854 248.441C696.565 248.269 691.457 246.469 687.229 243.285C683 240.102 679.856 235.69 678.225 230.652C674.562 219.335 678.767 205.839 672.361 195.818C668.816 190.273 662.695 187.012 656.793 184.106C650.891 181.199 644.696 178.216 640.739 172.958C636.782 167.7 635.991 159.395 640.868 154.977" fill="#2F2E41"/>
<path d="M763.846 524.111H443.785C443.629 524.111 443.474 524.081 443.329 524.021C443.184 523.961 443.053 523.874 442.942 523.763C442.831 523.653 442.743 523.521 442.683 523.376C442.623 523.232 442.592 523.077 442.592 522.92C442.592 522.763 442.623 522.608 442.683 522.464C442.743 522.319 442.831 522.187 442.942 522.077C443.053 521.966 443.184 521.879 443.329 521.819C443.474 521.759 443.629 521.729 443.785 521.729H763.846C764.002 521.729 764.157 521.759 764.302 521.819C764.447 521.879 764.578 521.966 764.689 522.077C764.8 522.187 764.888 522.319 764.948 522.464C765.008 522.608 765.039 522.763 765.039 522.92C765.039 523.077 765.008 523.232 764.948 523.376C764.888 523.521 764.8 523.653 764.689 523.763C764.578 523.874 764.447 523.961 764.302 524.021C764.157 524.081 764.002 524.111 763.846 524.111V524.111Z" fill="#3F3D56"/>
<path d="M196.91 223.152C183.668 223.152 170.724 219.223 159.715 211.861C148.705 204.499 140.124 194.035 135.057 181.793C129.989 169.551 128.664 156.08 131.247 143.083C133.83 130.087 140.206 118.149 149.569 108.779C158.932 99.4091 170.862 93.0282 183.849 90.443C196.836 87.8579 210.297 89.1846 222.53 94.2555C234.764 99.3265 245.22 107.914 252.576 118.932C259.933 129.949 263.859 142.903 263.859 156.154C263.839 173.917 256.779 190.946 244.228 203.507C231.677 216.067 214.66 223.132 196.91 223.152V223.152ZM196.91 91.1557C184.064 91.1557 171.506 94.9678 160.825 102.11C150.144 109.252 141.819 119.404 136.903 131.28C131.987 143.157 130.701 156.226 133.207 168.835C135.713 181.443 141.899 193.025 150.983 202.115C160.066 211.205 171.64 217.395 184.239 219.903C196.838 222.411 209.898 221.124 221.766 216.204C233.634 211.285 243.778 202.954 250.915 192.265C258.052 181.576 261.861 169.009 261.861 156.154C261.841 138.921 254.992 122.4 242.815 110.215C230.639 98.0293 214.13 91.1751 196.91 91.1557V91.1557Z" fill="#3F3D56"/>
<path d="M154.861 37.028L93.177 143.945H216.545L154.861 37.028L93.177 143.945H216.545L154.861 37.028Z" fill="#6C63FF"/>
</g>
<defs>
<clipPath id="clip0">
<rect width="781.558" height="524.326" fill="white"/>
</clipPath>
</defs>
</svg>
