<svg width="634" height="427" viewBox="0 0 634 427" fill="none" xmlns="http://www.w3.org/2000/svg">
<g clip-path="url(#clip0)">
<path d="M195.399 230.619L191.527 228.045C191.158 227.801 190.795 227.538 190.426 227.288C198.665 225.771 206.176 221.302 211.727 214.614C217.278 207.927 220.537 199.418 220.971 190.486C221.404 181.554 218.984 172.73 214.11 165.464C209.236 158.197 202.197 152.921 194.149 150.5L194.34 166.737L186.001 149.071H185.896C176.138 148.587 166.599 152.268 159.376 159.306C152.154 166.344 147.84 176.162 147.382 186.603C147.345 187.36 147.382 188.097 147.382 188.841C144.483 185.299 141.843 181.5 140.101 177.338C136.575 168.917 136.507 159.376 136.784 147.774C137.338 124.795 138.267 101.631 139.474 78.5456C148.182 77.5083 156.259 73.1839 162.255 66.3486C168.252 59.5134 171.774 50.6151 172.19 41.2514C172.24 40.0465 172.221 38.8613 172.19 37.6761C172.19 37.3798 172.19 37.0901 172.147 36.7938C172.073 35.6481 171.975 34.5156 171.809 33.3962C171.809 33.2119 171.747 33.0341 171.716 32.8563C171.569 31.9081 171.384 30.9732 171.175 30.0513C171.095 29.7024 171.015 29.3929 170.929 29.0176C170.67 28.0102 170.387 27.0423 170.055 26.0414C169.944 25.7188 169.815 25.383 169.698 25.0801C169.439 24.3624 169.156 23.6513 168.855 22.9533C168.695 22.5846 168.541 22.2159 168.375 21.8537C168.325 21.7615 168.295 21.6628 168.245 21.5706C164.356 13.3561 157.899 6.85879 149.998 3.20699C142.096 -0.444801 133.249 -1.02036 124.992 1.58028L125.239 22.7163L116.992 5.25439C110.216 9.40918 104.858 15.7702 101.697 23.4105C98.5369 31.0509 97.7393 39.5714 99.421 47.7305H99.384C99.4394 48.0136 99.5194 48.2836 99.581 48.5602C99.6979 49.0803 99.821 49.5939 99.9564 50.1075C100.129 50.7659 100.326 51.4244 100.529 52.0828C100.683 52.5701 100.83 53.0507 101.003 53.5314C101.255 54.2293 101.538 54.9075 101.821 55.5857C101.987 55.9808 102.135 56.389 102.314 56.7775C102.781 57.8003 103.29 58.7945 103.84 59.7603C104.031 60.1026 104.246 60.4187 104.455 60.7545C104.849 61.4129 105.243 62.0714 105.686 62.6837C105.951 63.0722 106.234 63.4475 106.511 63.8228C106.917 64.3693 107.329 64.9093 107.742 65.4294C108.043 65.8048 108.357 66.1669 108.671 66.5225C109.126 67.036 109.588 67.5299 110.068 68.0105C110.388 68.3332 110.683 68.669 111.034 68.9719C111.576 69.492 112.142 69.9793 112.714 70.4599C113.004 70.7036 113.287 70.9538 113.582 71.1908C114.456 71.8493 115.355 72.5077 116.284 73.1661C116.456 73.2781 116.647 73.3703 116.819 73.4822C117.601 73.9694 118.389 74.4369 119.201 74.8583C119.552 75.0427 119.909 75.2073 120.266 75.3785C120.931 75.6946 121.601 76.004 122.291 76.2872L123.522 76.7481C124.199 76.9917 124.888 77.2221 125.583 77.4065C125.989 77.525 126.402 77.6501 126.814 77.7555C127.565 77.9464 128.334 78.1045 129.11 78.2493L129.257 78.2822C128.753 88.0228 128.301 97.7655 127.903 107.51C125.708 102.685 122.615 98.3898 118.813 94.889C115.011 91.3883 110.58 88.7556 105.793 87.1526C101.005 85.5495 95.9625 85.0098 90.9733 85.5667C85.9841 86.1236 81.1539 87.7653 76.779 90.391L83.2903 109.486L69.8923 95.7244C62.7094 102.751 58.4283 112.542 57.9897 122.944C57.8002 126.599 58.0987 130.264 58.8759 133.828C60.5606 141.516 64.3653 148.485 69.7967 153.831C75.228 159.177 82.0354 162.654 89.336 163.81C96.6366 164.967 104.094 163.75 110.74 160.318C117.387 156.886 122.916 151.396 126.611 144.561C126.611 145.549 126.549 146.536 126.525 147.531C126.279 157.763 125.971 170.497 130.741 181.868C133.972 189.572 139.166 195.834 144.28 201.444C147.622 205.092 151.087 208.628 154.638 212.045C158.134 217.066 162.694 221.128 167.944 223.897C173.778 228.644 179.846 233.187 186.087 237.362L189.989 239.956C193.497 242.281 197.091 244.671 200.611 247.153C199.996 247.087 199.38 247.015 198.765 246.982C190.955 246.592 183.231 248.871 176.71 253.487C170.189 258.103 165.21 264.818 162.491 272.661L185.508 292.697L160.189 286.416C160.196 293.081 161.782 299.636 164.798 305.467C167.815 311.299 172.164 316.217 177.439 319.763C182.714 323.309 188.743 325.367 194.963 325.744C201.183 326.121 207.391 324.805 213.006 321.919L211.32 324.171C210.187 325.677 209.069 327.174 207.966 328.662C192.986 348.961 188.819 368.227 196.236 382.917L205.258 377.709C198.039 363.408 208.895 345.103 216.01 335.463C217.093 334.002 218.192 332.531 219.308 331.052C228.878 318.331 239.722 303.911 239.458 286.225C239.015 259.591 214.834 243.525 195.399 230.619Z" fill="#F2F2F2"/>
<path d="M441.426 286.923L443.765 285.362L444.429 284.902C439.444 283.989 434.898 281.289 431.538 277.244C428.178 273.2 426.205 268.053 425.943 262.649C425.68 257.245 427.145 251.907 430.096 247.512C433.046 243.117 437.307 239.928 442.177 238.468L442.06 248.286L447.107 237.606H447.168C453.071 237.312 458.841 239.539 463.209 243.797C467.577 248.054 470.186 253.994 470.462 260.309C470.462 260.763 470.462 261.211 470.462 261.626C472.243 259.554 473.726 257.211 474.863 254.672C476.998 249.576 477.041 243.808 476.869 236.796C476.574 222.922 475.958 208.891 475.25 194.952C469.984 194.327 465.098 191.712 461.471 187.579C457.844 183.445 455.715 178.063 455.464 172.4C455.433 171.676 455.464 170.951 455.464 170.24C455.464 170.063 455.464 169.885 455.464 169.7C455.507 169.009 455.569 168.324 455.667 167.653C455.667 167.541 455.704 167.435 455.723 167.323C455.815 166.751 455.926 166.184 456.049 165.625L456.197 164.966C456.357 164.36 456.529 163.761 456.726 163.169C456.794 162.971 456.874 162.78 456.941 162.589C457.101 162.155 457.274 161.727 457.452 161.272C457.551 161.049 457.643 160.831 457.747 160.614C457.747 160.561 457.791 160.502 457.821 160.443C460.173 155.474 464.079 151.543 468.859 149.336C473.639 147.128 478.99 146.783 483.984 148.36L483.83 161.141L488.821 150.606C492.918 153.116 496.158 156.962 498.069 161.581C499.98 166.201 500.461 171.352 499.443 176.285C499.406 176.456 499.357 176.614 499.32 176.785C499.253 177.101 499.179 177.411 499.093 177.72C499.006 178.03 498.871 178.51 498.748 178.899C498.625 179.287 498.563 179.485 498.465 179.775C498.311 180.196 498.139 180.611 497.966 181.019C497.868 181.256 497.776 181.5 497.671 181.737C497.388 182.356 497.055 182.955 496.748 183.541C496.631 183.745 496.502 183.943 496.378 184.147C496.145 184.542 495.898 184.93 495.64 185.312C495.48 185.543 495.308 185.773 495.141 185.971C494.895 186.306 494.649 186.629 494.391 186.945C494.132 187.261 494.015 187.386 493.824 187.603C493.634 187.821 493.271 188.209 492.981 188.506C492.79 188.703 492.6 188.901 492.397 189.085C492.07 189.401 491.726 189.697 491.381 189.987L490.858 190.428C490.329 190.843 489.787 191.238 489.221 191.607L488.895 191.798C488.427 192.094 487.947 192.371 487.455 192.634L486.839 192.943C486.433 193.134 486.027 193.325 485.608 193.49L484.876 193.773C484.464 193.925 484.051 194.056 483.645 194.181L482.9 194.392C482.445 194.511 481.977 194.603 481.51 194.695H481.417C481.725 200.581 482 206.472 482.242 212.368C483.569 209.45 485.44 206.853 487.739 204.736C490.039 202.62 492.718 201.029 495.613 200.061C498.508 199.093 501.558 198.768 504.574 199.107C507.591 199.445 510.511 200.44 513.155 202.03L509.223 213.572L517.322 205.25C521.664 209.501 524.254 215.42 524.522 221.711C524.627 223.923 524.437 226.14 523.956 228.295C522.937 232.944 520.636 237.158 517.352 240.391C514.067 243.624 509.951 245.727 505.536 246.427C501.121 247.127 496.611 246.391 492.591 244.316C488.572 242.24 485.228 238.921 482.993 234.787C482.993 235.38 483.03 235.986 483.042 236.585C483.196 242.768 483.38 250.472 480.494 257.346C478.543 262.007 475.398 265.794 472.29 269.198C470.263 271.392 468.175 273.53 466.025 275.611C463.911 278.644 461.154 281.097 457.981 282.768C454.449 285.678 450.795 288.402 447.02 290.939L444.657 292.507C442.54 293.909 440.349 295.358 438.232 296.859C438.607 296.819 438.983 296.773 439.358 296.753C444.081 296.518 448.751 297.894 452.695 300.684C456.639 303.473 459.652 307.532 461.299 312.273L447.377 324.388L462.689 320.589C462.685 324.62 461.726 328.584 459.902 332.111C458.078 335.637 455.448 338.612 452.258 340.756C449.068 342.901 445.422 344.145 441.66 344.373C437.899 344.601 434.144 343.806 430.748 342.061L431.782 343.437C432.465 344.346 433.148 345.248 433.813 346.15C442.872 358.423 445.389 370.078 440.903 378.96L435.45 375.806C439.814 367.161 433.247 356.092 428.945 350.259C428.293 349.376 427.622 348.487 426.951 347.625C421.166 339.934 414.605 331.216 414.765 320.517C415.03 304.418 429.671 294.712 441.426 286.923Z" fill="#F2F2F2"/>
<path d="M317.175 427C491.882 427 633.51 413.734 633.51 397.37C633.51 381.006 491.882 367.74 317.175 367.74C142.468 367.74 0.840118 381.006 0.840118 397.37C0.840118 413.734 142.468 427 317.175 427Z" fill="#F2F2F2"/>
<path d="M68.169 394.848C66.3227 391.22 68.4152 386.769 70.8093 383.536C73.2033 380.303 76.1082 376.952 76.0466 372.81C75.9543 366.884 70.0769 363.388 65.3811 360.241C61.8943 357.912 58.6795 355.147 55.8049 352.003C54.6001 350.795 53.6043 349.368 52.8631 347.789C51.8907 345.472 51.9153 342.838 51.9769 340.303C52.1861 331.849 52.5779 323.401 53.1523 314.959" stroke="#3F3D56" stroke-width="4" stroke-miterlimit="10"/>
<path d="M44.2224 314.498C44.2878 312.951 44.7168 311.446 45.4698 310.122C46.2228 308.799 47.2754 307.7 48.5304 306.926L50.4629 311.022L50.4014 306.064C51.3257 305.774 52.2885 305.649 53.2508 305.695C54.9507 305.785 56.5876 306.412 57.9549 307.496C59.3222 308.581 60.3588 310.074 60.9337 311.788C61.5087 313.502 61.5963 315.36 61.1855 317.127C60.7748 318.894 59.8841 320.491 58.6257 321.717C57.3674 322.943 55.7979 323.743 54.1151 324.016C52.4323 324.289 50.7117 324.022 49.1703 323.25C47.6289 322.478 46.3358 321.235 45.4541 319.677C44.5725 318.12 44.1417 316.318 44.2162 314.498H44.2224Z" fill="#57B894"/>
<path d="M59.6268 377.044C60.5328 378.923 62.0148 380.411 63.8246 381.26C65.6344 382.109 67.6618 382.266 69.5672 381.706C71.4725 381.146 73.14 379.902 74.2901 378.183C75.4402 376.464 76.0031 374.374 75.8844 372.264C75.7657 370.153 74.9726 368.151 73.6381 366.592C72.3036 365.033 70.5088 364.012 68.5544 363.7C66.6 363.388 64.6048 363.805 62.9033 364.879C61.2017 365.954 59.8971 367.622 59.2082 369.604L64.6056 374.298L58.6913 372.843C58.6878 374.303 59.0084 375.743 59.6268 377.044Z" fill="#57B894"/>
<path d="M63.8917 359.101C66.0379 359.264 68.163 358.561 69.8494 357.131C71.5358 355.702 72.6612 353.649 73.0046 351.377C73.3479 349.105 72.8842 346.777 71.7046 344.852C70.5251 342.927 68.715 341.544 66.6304 340.974L66.6797 344.78L64.7226 340.639C63.5893 340.579 62.4562 340.76 61.3884 341.171C60.3206 341.581 59.3391 342.213 58.5002 343.03C57.6614 343.848 56.9816 344.834 56.5001 345.934C56.0185 347.033 55.7446 348.223 55.6941 349.435C55.6435 350.502 55.7685 351.569 56.0634 352.589C56.5824 354.405 57.613 356.005 59.0142 357.171C60.4154 358.337 62.1188 359.011 63.8917 359.101Z" fill="#57B894"/>
<path d="M42.9238 344.175C44.2496 344.227 45.5688 343.951 46.7785 343.368C47.9882 342.785 49.0558 341.911 49.898 340.814C50.7401 339.717 51.3342 338.427 51.6338 337.044C51.9334 335.661 51.9305 334.223 51.6253 332.842C51.32 331.461 50.7208 330.173 49.8742 329.08C49.0275 327.987 47.9564 327.118 46.7444 326.541C45.5323 325.964 44.212 325.694 42.8864 325.752C41.5607 325.81 40.2656 326.196 39.1019 326.877L40.6282 331.355L37.4894 328.128C35.8074 329.776 34.8048 332.071 34.7015 334.509C34.6605 335.365 34.733 336.223 34.9169 337.057C35.3433 339.015 36.3565 340.771 37.802 342.056C39.2476 343.341 41.0462 344.085 42.9238 344.175Z" fill="#57B894"/>
<path opacity="0.1" d="M45.3855 316.961C47.3796 317.191 49.3182 317.857 51.3184 317.988C53.3185 318.12 55.5156 317.613 56.7834 315.947C57.4604 315.052 57.8051 313.919 58.3774 312.938C58.9241 312.027 59.6724 311.273 60.5561 310.745C61.0785 311.911 61.3658 313.182 61.3993 314.474C61.4329 315.766 61.212 317.052 60.751 318.247C60.29 319.442 59.5992 320.52 58.7234 321.411C57.8476 322.302 56.8065 322.985 55.6676 323.418C54.5287 323.85 53.3176 324.021 52.1129 323.92C50.9081 323.819 49.7367 323.448 48.6748 322.831C47.6128 322.214 46.6841 321.365 45.9488 320.339C45.2135 319.313 44.6882 318.133 44.407 316.875C44.7311 316.875 45.0573 316.904 45.3855 316.961Z" fill="black"/>
<path opacity="0.1" d="M42.9238 344.174C44.4134 344.255 45.8972 343.921 47.2299 343.204C48.5626 342.488 49.6986 341.413 50.5267 340.086C51.3548 338.759 51.8466 337.224 51.9541 335.632C52.0616 334.041 51.781 332.446 51.1399 331.006C50.4545 331.499 49.8651 332.129 49.4043 332.862C48.7889 333.857 48.4135 335.009 47.6934 335.918C46.3456 337.61 44.05 338.163 41.9637 338.064C39.8773 337.965 37.8649 337.327 35.8093 337.123C35.52 337.123 35.2308 337.076 34.9354 337.07C35.3632 339.023 36.3746 340.773 37.8163 342.055C39.2579 343.337 41.0511 344.081 42.9238 344.174Z" fill="black"/>
<path opacity="0.1" d="M63.8918 359.101C65.3676 359.181 66.8378 358.854 68.1612 358.15C69.4845 357.447 70.6166 356.391 71.4485 355.085C72.2804 353.778 72.7842 352.264 72.9115 350.689C73.0389 349.114 72.7854 347.531 72.1756 346.091C71.459 346.591 70.8334 347.227 70.3292 347.967C69.6584 348.981 69.2399 350.153 68.4829 351.088C67.0243 352.82 64.5749 353.432 62.3716 353.38C60.1684 353.327 58.1682 352.767 56.0449 352.589C56.565 354.408 57.5984 356.011 59.0032 357.177C60.4081 358.342 62.1157 359.015 63.8918 359.101Z" fill="black"/>
<path opacity="0.1" d="M59.6268 377.044C60.5612 379.278 62.287 381.024 64.4246 381.897C66.5621 382.77 68.9362 382.699 71.0247 381.699C73.1131 380.7 74.7448 378.853 75.5608 376.566C76.3768 374.279 76.3103 371.739 75.3758 369.505C74.6629 370.004 74.0239 370.614 73.4803 371.316C72.6556 372.382 72.114 373.6 71.1662 374.608C69.3999 376.465 66.5504 377.242 64.0087 377.301C62.5446 377.308 61.0814 377.223 59.6268 377.044Z" fill="black"/>
<path d="M81.1979 390.667C81.1979 390.667 74.3788 390.443 72.3232 388.876C70.2677 387.309 61.8608 385.446 61.3315 387.954C60.8022 390.463 51.0845 400.465 58.7774 400.504C66.4704 400.544 76.6621 399.227 78.7176 397.871C80.7732 396.514 81.1979 390.667 81.1979 390.667Z" fill="#656380"/>
<path opacity="0.2" d="M58.6421 399.635C66.3412 399.701 76.5267 398.318 78.5761 397.001C80.1393 395.981 80.7609 392.333 80.9702 390.647H81.1979C81.1979 390.647 80.7671 396.534 78.7361 397.89C76.7052 399.247 66.4951 400.57 58.7959 400.524C56.5742 400.524 55.8111 399.661 55.8541 398.41C56.1434 399.181 56.9865 399.615 58.6421 399.635Z" fill="black"/>
<path d="M385.07 150.5C391.877 156.071 395.877 164.927 397.213 173.98C397.607 176.614 397.792 179.353 398.192 182.027C399.881 193.021 405.177 203.012 413.128 210.208C411.96 210.825 410.669 211.128 409.367 211.09C408.065 211.052 406.792 210.675 405.657 209.991C407.394 217.483 410.599 224.494 415.061 230.56C409.946 227.788 405.461 223.851 401.921 219.024C401.257 223.783 401.508 228.637 402.657 233.289C403.806 237.941 405.83 242.293 408.605 246.08C405.2 244.349 402.181 241.859 399.75 238.776C397.32 235.694 395.533 232.091 394.511 228.21L400.383 244.776C396.69 243.65 394.044 240.299 391.92 236.875C384.051 224.192 380.655 208.928 382.338 193.813C383.064 187.472 384.683 181.243 384.947 174.863C385.212 168.482 383.876 161.628 379.605 157.157C376.38 153.773 371.875 152.219 367.45 151.89C364.669 151.679 357.462 154.056 360.188 148.696C364.361 140.512 380.215 146.53 385.07 150.5Z" fill="#3F3D56"/>
<path d="M362.755 145.536L366.275 154.543C367.814 155.86 368.614 153.279 369.155 153.839C369.848 154.587 370.467 155.41 371.001 156.295L371.192 156.183L366.029 143.843C364.25 142.178 363.37 144.541 362.755 145.536Z" fill="#6C63FF"/>
<path d="M343.362 217.372C364.256 217.372 381.193 199.932 381.193 178.418C381.193 156.905 364.256 139.465 343.362 139.465C322.469 139.465 305.531 156.905 305.531 178.418C305.531 199.932 322.469 217.372 343.362 217.372Z" fill="#3F3D56"/>
<path d="M282.711 386.15C275.122 385.551 267.325 384.972 260.075 387.52C257.385 388.468 254.647 389.857 251.853 389.35C248.899 388.817 246.658 386.288 244.652 383.905C242.473 381.317 240.215 378.571 239.476 375.174C238.958 372.546 239.278 369.808 240.387 367.398C240.543 366.991 240.776 366.624 241.07 366.318C241.686 365.738 242.603 365.725 243.427 365.758C250.542 366.081 257.699 367.957 264.709 366.627C268.808 365.85 276.895 362.624 279.289 368.168C280.298 370.466 278.606 385.828 282.711 386.15Z" fill="#575A89"/>
<path d="M207.701 334.041C198.236 336.8 189.183 340.961 180.166 345.109L160.115 354.328L166.042 370.025C166.553 371.342 165.587 371.263 166.818 371.855C168.184 372.514 171.335 373.422 172.738 372.85C186.247 367.325 201.787 370.486 215.376 365.185C220.379 363.21 225.057 360.148 230.318 359.259C236.473 358.199 242.99 360.234 248.948 358.226C249.591 358.066 250.169 357.69 250.597 357.152C250.928 356.506 251.049 355.76 250.942 355.032C250.634 349.613 248.72 344.497 246.234 339.842C244.603 336.76 242 330.624 238.756 329.122C235.094 327.443 227.943 329.899 224.127 330.505C218.591 331.334 213.106 332.515 207.701 334.041Z" fill="#FFC1C7"/>
<path d="M174.935 372.573C167.488 374.226 159.82 375.984 153.53 380.56C151.185 382.265 148.914 384.405 146.096 384.741C143.117 385.097 140.317 383.332 137.775 381.627C135.012 379.783 132.132 377.808 130.55 374.759C129.376 372.383 128.979 369.655 129.424 367.009C129.47 366.576 129.598 366.157 129.799 365.778C130.337 365.094 131.098 364.654 131.928 364.547C138.852 362.756 148.219 359.542 154.613 356.198C158.355 354.222 163.291 351.667 167.021 356.29C168.565 358.206 170.892 373.501 174.935 372.573Z" fill="#575A89"/>
<path d="M330.715 226.669C330.23 228.215 330.032 229.848 330.13 231.476V243.63C330.041 245.378 330.235 247.129 330.703 248.806C331.423 250.932 332.986 252.592 334.58 254.073C339.712 258.828 345.647 262.489 352.064 264.859C355.634 266.175 359.542 267.11 363.179 265.985C365.268 265.235 367.219 264.103 368.946 262.64C373.737 258.902 378.029 254.483 381.704 249.504C385.397 244.453 388.603 237.935 386.757 231.818C383.305 231.038 380.105 229.3 377.48 226.778C374.855 224.256 372.896 221.039 371.802 217.451C371.094 215.041 370.749 212.394 369.266 210.432C366.09 206.231 359.936 207.409 355.111 208.983C350.427 210.504 342.291 211.386 338.82 215.205C337.448 216.713 336.925 219.189 335.583 220.835C333.971 222.843 331.7 224.094 330.715 226.669Z" fill="#FFC1C7"/>
<path opacity="0.1" d="M330.715 226.669C330.23 228.215 330.032 229.848 330.13 231.476V243.63C330.041 245.378 330.235 247.129 330.703 248.806C331.423 250.932 332.986 252.592 334.58 254.073C339.712 258.828 345.647 262.489 352.064 264.859C355.634 266.175 359.542 267.11 363.179 265.985C365.268 265.235 367.219 264.103 368.946 262.64C373.737 258.902 378.029 254.483 381.704 249.504C385.397 244.453 388.603 237.935 386.757 231.818C383.305 231.038 380.105 229.3 377.48 226.778C374.855 224.256 372.896 221.039 371.802 217.451C371.094 215.041 370.749 212.394 369.266 210.432C366.09 206.231 359.936 207.409 355.111 208.983C350.427 210.504 342.291 211.386 338.82 215.205C337.448 216.713 336.925 219.189 335.583 220.835C333.971 222.843 331.7 224.094 330.715 226.669Z" fill="black"/>
<path d="M352.92 226.287C369.769 226.287 383.427 211.674 383.427 193.648C383.427 175.622 369.769 161.009 352.92 161.009C336.071 161.009 322.413 175.622 322.413 193.648C322.413 211.674 336.071 226.287 352.92 226.287Z" fill="#FFC1C7"/>
<path d="M433.364 310.39C434.952 312.813 436.33 315.387 437.986 317.758C441.389 322.624 445.882 326.482 450.295 330.268L475.478 351.839C482.507 357.863 489.929 364.086 498.785 365.831C501.807 366.43 505.382 366.259 507.321 363.717C509.586 360.734 508.25 356.033 505.61 353.432C502.97 350.831 499.413 349.666 496.157 348.053C482.396 341.211 474.063 326.324 464.376 313.814C455.864 302.837 445.863 293.303 436.583 283.071C426.736 272.193 418.944 259.571 409.546 248.437C405.054 252.44 399.933 260.565 398.924 266.873C398.019 272.51 401.035 276.638 404.463 280.556C413.571 291.071 425.597 298.564 433.364 310.39Z" fill="#FFC1C7"/>
<path d="M417.153 233.385C417.042 242.689 409.651 250.09 407.749 259.163C407.52 260.662 407.187 262.141 406.752 263.588C405.971 265.701 404.457 267.407 402.9 268.954C400.327 271.515 397.398 273.906 393.951 274.636C393.539 274.722 395.182 244.131 395.761 241.293C397.552 232.101 409.99 234.208 417.153 233.385Z" fill="#FF6584"/>
<path d="M336.66 228.809C336.592 234.294 337.042 239.897 339.066 244.934C341.091 249.971 344.87 254.409 349.793 255.963C352.391 256.786 355.142 256.779 357.85 256.74C360.034 256.7 362.262 256.641 364.324 255.877C368.466 254.35 371.328 250.228 372.989 245.895C374.651 241.563 375.359 236.888 376.725 232.443C377.439 230.106 378.762 227.485 381.033 227.268C382.479 227.136 383.809 228.045 385.009 228.914L397.318 237.836C399.779 252.881 397.256 268.533 392.154 282.794C390.622 287.068 388.757 291.262 388.055 295.772C386.621 305.056 390.259 314.261 393.194 323.137C395.336 329.603 397.133 336.194 398.936 342.779L403.472 359.378C404.524 363.243 405.589 367.279 404.814 371.23C404.038 375.18 400.746 378.861 397.01 378.4C395.97 378.275 394.844 377.86 393.933 378.4C391.711 379.717 394.185 383.293 393.982 386.012C393.723 389.528 389.274 390.285 385.981 390.206C369.623 389.818 353.474 393.591 337.257 395.889C321.04 398.186 304.085 398.931 288.773 392.774C282.218 390.14 276.15 386.295 270.119 382.483C258.702 375.24 246.634 367.286 241.027 354.42C238.565 348.79 237.501 342.476 234.362 337.254C232.639 334.37 230.257 331.743 229.74 328.365C229.014 323.611 232.423 319.048 236.51 317.047C240.596 315.045 245.268 314.973 249.766 314.729C254.265 314.485 258.998 313.945 262.691 311.213C266.709 308.27 269.171 303.048 273.639 300.967C275.547 300.092 277.658 299.888 279.67 299.341C282.412 298.52 285.023 297.266 287.419 295.621C306.048 283.479 316.8 258.827 313.526 235.755C313.161 233.448 312.955 231.115 312.91 228.776C312.875 228.376 312.948 227.974 313.12 227.617C313.346 227.314 313.656 227.095 314.006 226.991C316.849 225.872 320.074 226.471 322.954 225.464C325.133 224.7 326.955 223.074 329.053 222.086C331.152 221.098 333.915 220.907 335.46 222.744C336.869 224.384 336.691 226.55 336.66 228.809Z" fill="#FF6584"/>
<path d="M333.029 197.526C330.856 189.23 320.991 184.291 319.539 175.857C318.775 171.406 320.665 166.889 323.594 163.57C326.524 160.252 330.413 157.967 334.309 155.873C340.02 152.798 346.255 149.947 352.772 150.573C359.493 151.231 368.078 152.502 373.297 156.92C376.99 160.041 378.011 166.533 379.15 171.195C379.678 173.529 379.525 175.98 378.709 178.218C377.893 180.455 376.455 182.371 374.589 183.705C370.281 186.774 364.459 186.55 359.099 186.57C353.738 186.589 347.756 187.294 344.451 191.449C342.642 193.72 341.947 196.677 340.636 199.271C339.325 201.865 336.906 204.315 333.983 204.058L333.029 197.526Z" fill="#3F3D56"/>
<path d="M282.785 280.905C280.821 284.276 278.821 287.713 277.861 291.558C276.359 297.669 277.738 304.378 281.006 309.639C284.274 314.9 289.314 318.752 294.829 321.004C297.02 321.899 299.291 322.558 301.457 323.519C311.082 327.792 318.228 337.867 328.481 339.895C329.923 340.274 331.437 340.196 332.838 339.671C336.112 338.183 336.697 333.574 336.795 329.794C336.845 327.898 336.882 325.916 336.094 324.217C335.398 322.904 334.432 321.779 333.269 320.925C325.933 314.913 316.547 312.628 308.51 307.756C304.737 305.478 300.977 302.1 300.472 297.497C299.925 292.46 303.408 288.095 306.177 283.973C312.984 273.84 318.769 257.444 315.501 244.829C310.898 227.051 299.561 252.151 296.533 257.339C291.959 265.188 287.376 273.043 282.785 280.905Z" fill="#FFC1C7"/>
<path d="M305.279 232.213C303.525 234.373 302.343 236.987 300.848 239.364C298.739 242.714 296.017 245.572 292.847 247.765C296.392 247.37 300.398 247.107 303.039 249.681C305.273 251.835 305.79 255.318 307.242 258.136C308.333 260.363 310.141 262.091 312.332 263.002C313.426 263.441 314.604 263.583 315.762 263.415C316.92 263.247 318.021 262.775 318.966 262.04C321.816 259.67 322.13 255.265 322.203 251.4L322.333 244.447C322.382 241.859 322.333 239.021 320.782 237.053C319.816 235.841 318.406 235.163 317.138 234.327C312.252 231.107 310.775 225.464 305.279 232.213Z" fill="#FF6584"/>
<path d="M326.407 209.668C327.238 205.994 324.911 202.175 325.533 198.474C325.697 197.538 326.042 196.649 326.546 195.864C327.049 195.078 327.7 194.413 328.456 193.911C329.312 193.352 330.303 193.016 331.17 192.502C332.851 191.443 334.122 189.776 334.754 187.801C335.386 185.827 335.338 183.676 334.617 181.737C333.349 178.622 330.493 176.634 327.681 175.073C324.696 173.407 321.059 172.018 318.08 173.691C314.461 175.725 313.95 180.933 313.901 185.332C313.858 188.927 313.827 192.575 314.806 196.025C315.935 199.728 317.757 203.146 320.16 206.073C320.585 206.553 325.847 212.183 326.407 209.668Z" fill="#3F3D56"/>
<path d="M326.825 255.759C324.05 264.74 314.517 268.473 307.845 274.854C308.181 273.837 308.35 272.765 308.344 271.687C308.344 269.053 307.728 266.419 308.43 263.891C304.756 268.602 299.813 271.987 294.275 273.583L291.579 244.526C290.208 249.132 287.925 253.368 284.887 256.945C281.849 260.523 278.126 263.359 273.972 265.26C281.615 250.61 283.942 233.583 286.403 217.016C287.003 212.357 287.857 207.74 288.964 203.189C290.502 197.301 292.843 191.688 295.912 186.53C297.781 183.351 300.06 180.469 302.682 177.971C305.322 175.6 308.307 173.954 311.224 174.533C316.258 175.547 314.234 178.188 311.224 180.611C308.836 182.52 305.82 184.305 305.107 185.069C304.296 185.94 303.691 187.005 303.34 188.176C302.183 191.949 303.426 196.736 304.94 200.634C308.812 210.644 313.525 220.257 319.022 229.355C321.483 233.372 324.056 237.323 325.791 241.754C327.527 246.185 328.253 251.216 326.825 255.759Z" fill="#3F3D56"/>
<path d="M306.344 175.87L307.156 185.595C306.362 187.505 304.54 185.641 304.306 186.412C304 187.419 303.794 188.459 303.691 189.513H303.476L302.657 176.021C303.562 173.644 305.371 175.31 306.344 175.87Z" fill="#6C63FF"/>
<path d="M495.985 321.359C499.288 321.359 501.967 318.494 501.967 314.959C501.967 311.425 499.288 308.559 495.985 308.559C492.681 308.559 490.003 311.425 490.003 314.959C490.003 318.494 492.681 321.359 495.985 321.359Z" fill="#3F3D56"/>
<path d="M492.514 364.751C493.129 369.36 492.378 374.114 491.203 378.624C491.013 379.472 490.724 380.291 490.341 381.06C489.887 381.791 489.398 382.497 488.876 383.174C487.937 384.702 487.215 386.371 486.735 388.126C485.215 392.901 483.939 397.76 482.913 402.684C482.851 402.885 482.851 403.102 482.913 403.303C483.054 403.658 483.528 403.711 483.861 403.704H488.556C488.729 403.362 488.415 402.987 488.218 402.657C487.541 401.545 488.218 400.103 488.778 398.937C490.218 396.108 491.33 393.1 492.089 389.982C492.355 388.654 492.726 387.352 493.197 386.091C493.919 384.64 494.727 383.239 495.615 381.897C496.51 380.238 497.278 378.505 497.911 376.715C498.947 374.288 499.707 371.737 500.176 369.116C500.449 366.628 500.432 364.114 500.127 361.63C500.127 361.473 500.074 361.321 499.979 361.202C499.872 361.125 499.745 361.086 499.616 361.09L493.314 360.748C492.015 360.675 491.707 360.372 491.904 361.735C492.052 362.729 492.378 363.724 492.514 364.751Z" fill="#575A89"/>
<path opacity="0.1" d="M492.514 364.751C493.129 369.36 492.378 374.114 491.203 378.624C491.013 379.472 490.724 380.291 490.341 381.06C489.887 381.791 489.398 382.497 488.876 383.174C487.937 384.702 487.215 386.371 486.735 388.126C485.215 392.901 483.939 397.76 482.913 402.684C482.851 402.885 482.851 403.102 482.913 403.303C483.054 403.658 483.528 403.711 483.861 403.704H488.556C488.729 403.362 488.415 402.987 488.218 402.657C487.541 401.545 488.218 400.103 488.778 398.937C490.218 396.108 491.33 393.1 492.089 389.982C492.355 388.654 492.726 387.352 493.197 386.091C493.919 384.64 494.727 383.239 495.615 381.897C496.51 380.238 497.278 378.505 497.911 376.715C498.947 374.288 499.707 371.737 500.176 369.116C500.449 366.628 500.432 364.114 500.127 361.63C500.127 361.473 500.074 361.321 499.979 361.202C499.872 361.125 499.745 361.086 499.616 361.09L493.314 360.748C492.015 360.675 491.707 360.372 491.904 361.735C492.052 362.729 492.378 363.724 492.514 364.751Z" fill="black"/>
<path d="M493.757 353.478C492.477 355.454 491.129 357.719 491.56 360.063C491.88 361.847 493.154 363.236 494.36 364.534C499.166 369.696 503.899 375.437 505.536 382.516C505.955 384.346 506.152 386.229 506.521 388.073C507.269 391.4 508.277 394.653 509.537 397.798L512.675 406.285C513.647 406.311 514.603 406.016 515.413 405.441C516.223 404.867 516.848 404.04 517.205 403.072C516.727 402.965 516.304 402.672 516.017 402.249C514.682 400.274 514.405 397.719 514.06 395.303C513.685 392.629 513.174 389.982 512.663 387.335L510.423 375.635C510.164 374.278 509.906 372.929 509.567 371.592C508.256 366.436 505.776 361.564 505.395 356.231C505.426 355.436 505.21 354.653 504.779 354.005C504.178 353.466 503.408 353.193 502.625 353.241C499.511 353.017 496.803 352.695 493.757 353.478Z" fill="#575A89"/>
<path d="M485.294 402.565C484.954 402.475 484.605 402.426 484.254 402.42C483.918 402.433 483.59 402.53 483.295 402.702C483 402.875 482.747 403.119 482.556 403.415C482.36 403.751 482.206 404.114 482.1 404.494L481.645 405.884C481.552 406.077 481.499 406.289 481.488 406.505C481.477 406.722 481.51 406.939 481.583 407.141C481.732 407.377 481.948 407.555 482.199 407.648C483.336 408.066 484.529 408.289 485.731 408.307C486.895 408.432 488.045 408.649 489.19 408.88C489.584 408.959 489.978 409.038 490.378 409.084C491.275 409.144 492.175 409.115 493.067 408.998L493.991 408.899C494.299 408.887 494.603 408.827 494.895 408.722C495.043 408.666 495.178 408.579 495.293 408.466C495.409 408.352 495.501 408.216 495.566 408.063C495.605 407.908 495.614 407.746 495.591 407.587C495.568 407.429 495.515 407.277 495.435 407.141C495.354 407.005 495.248 406.889 495.124 406.8C494.999 406.71 494.858 406.649 494.711 406.621C494.464 406.569 494.212 406.621 493.966 406.562C493.688 406.51 493.417 406.422 493.16 406.299C491.96 405.856 490.815 405.259 489.75 404.521C489.461 404.303 489.135 404.001 489.19 403.625C489.222 403.466 489.271 403.311 489.338 403.164C489.473 402.778 489.473 402.352 489.338 401.966C489.276 401.801 489.172 401.63 489.012 401.61C488.569 401.551 488.624 402.236 488.556 402.506C488.489 402.776 488.31 402.901 487.996 402.868C487.098 402.796 486.193 402.743 485.294 402.565Z" fill="#3F3D56"/>
<path d="M511.715 407.365C511.716 408.063 511.933 408.741 512.331 409.294C512.456 409.455 512.611 409.588 512.786 409.683C513.047 409.798 513.33 409.845 513.611 409.821C514.408 409.808 515.197 409.638 515.937 409.321C516.198 409.198 516.465 409.09 516.737 408.998C517.083 408.924 517.432 408.869 517.783 408.834C519.168 408.623 520.381 407.747 521.722 407.306C522.118 407.197 522.506 407.06 522.885 406.898C523.4 406.596 523.866 406.207 524.264 405.745C524.503 405.507 524.71 405.235 524.879 404.936C525.087 404.421 525.18 403.862 525.15 403.303C525.158 403.217 525.143 403.13 525.107 403.052C525.071 402.995 525.02 402.951 524.959 402.927C524.526 402.775 524.058 402.775 523.624 402.927C521.994 403.176 520.344 403.242 518.7 403.125C518.539 403.132 518.379 403.098 518.233 403.026C518.111 402.93 518.01 402.806 517.937 402.664L517.322 401.591C517.143 401.281 516.86 400.932 516.534 401.031C516.409 401.092 516.307 401.195 516.243 401.325C516.18 401.455 516.159 401.604 516.183 401.749C516.226 402.034 516.239 402.323 516.22 402.611C516.184 402.768 516.118 402.916 516.026 403.044C515.934 403.172 515.818 403.278 515.685 403.355C515.422 403.512 515.14 403.629 514.848 403.704C513.858 403.907 512.928 404.358 512.134 405.021C511.654 405.522 511.684 406.674 511.715 407.365Z" fill="#3F3D56"/>
<path d="M511.389 336.339C511.751 336.047 512.062 335.688 512.306 335.279C512.515 334.818 512.646 334.321 512.694 333.811L512.958 332.033C513.019 331.037 513.338 330.079 513.882 329.267C514.497 328.523 515.728 328.253 516.343 328.991C516.595 329.335 516.75 329.748 516.793 330.183C516.984 331.459 516.906 332.766 516.563 334.006C516.22 335.245 515.621 336.387 514.811 337.346C514.06 338.229 513.143 338.927 512.349 339.763C511.654 340.481 511.057 341.297 510.417 342.081C508.871 343.959 507.102 345.613 505.155 346.999C505.256 345.641 505.256 344.275 505.155 342.917C505.019 341.956 504.656 341.442 505.518 340.816C507.551 339.442 509.511 337.947 511.389 336.339Z" fill="#FBBEBE"/>
<path d="M494.514 323.236C494.501 323.715 494.39 324.186 494.189 324.615C493.988 325.044 493.702 325.42 493.351 325.718C495.439 326.495 497.49 327.356 499.505 328.299C499.145 327.857 498.955 327.285 498.976 326.699C498.972 325.172 499.373 323.674 500.133 322.38C500.248 322.216 500.314 322.019 500.323 321.814C500.323 321.392 499.831 321.195 499.443 321.103C498.13 320.765 496.791 320.558 495.443 320.484C494.865 320.484 494.212 320.266 494.311 321.057C494.464 321.771 494.532 322.503 494.514 323.236Z" fill="#FBBEBE"/>
<path d="M498.551 323.75C501.253 323.75 503.444 321.406 503.444 318.515C503.444 315.624 501.253 313.28 498.551 313.28C495.849 313.28 493.658 315.624 493.658 318.515C493.658 321.406 495.849 323.75 498.551 323.75Z" fill="#FBBEBE"/>
<path d="M503.388 332.678C503.219 332.286 503.013 331.913 502.773 331.565C501.927 330.172 500.943 328.88 499.837 327.713C498.974 326.893 498.04 326.162 497.049 325.527C496.515 325.13 495.925 324.826 495.301 324.625C494.935 324.538 494.562 324.483 494.188 324.461L492.914 324.355C492.802 324.336 492.687 324.336 492.575 324.355C492.41 324.425 492.275 324.558 492.196 324.728C492.118 324.899 492.101 325.095 492.15 325.277C492.259 325.642 492.454 325.971 492.717 326.232C492.772 329.004 491.621 331.743 491.486 334.509C491.215 339.355 493.948 343.859 494.2 348.705C494.221 348.926 494.2 349.15 494.138 349.363C494.101 349.462 494.046 349.554 494.003 349.653C493.896 349.967 493.844 350.3 493.849 350.634C493.746 351.817 493.25 352.922 492.452 353.748C492.656 354.032 492.923 354.258 493.227 354.407C493.796 354.594 494.376 354.741 494.963 354.848C496.42 355.399 497.954 355.68 499.499 355.678C499.689 355.232 499.808 354.756 499.85 354.268C500.065 354.124 500.317 354.433 500.348 354.703C500.379 354.973 500.348 355.296 500.508 355.493C500.596 355.561 500.696 355.608 500.802 355.631C500.909 355.654 501.018 355.652 501.124 355.625C502.053 355.447 502.974 355.216 503.881 354.933C504.797 354.66 505.765 354.66 506.681 354.933C506.755 354.799 506.791 354.645 506.783 354.489C506.776 354.333 506.725 354.183 506.638 354.058C506.463 353.809 506.316 353.54 506.201 353.254C506.158 353.083 506.139 352.905 506.145 352.728C506.145 351.194 506.441 349.646 506.145 348.119C506.059 347.677 505.93 347.249 505.844 346.802C505.711 345.931 505.672 345.048 505.727 344.168C505.727 343.279 505.647 342.344 505.635 341.455C505.631 341.088 505.608 340.721 505.567 340.356C505.512 339.974 505.401 339.605 505.37 339.216C505.278 338.242 505.647 337.241 505.592 336.293C505.549 334.838 503.936 334.028 503.388 332.678Z" fill="#6C63FF"/>
<path d="M492.354 331.947C491.166 335.312 490.587 338.881 490.015 342.423L488.673 350.739C488.226 353.076 487.977 355.452 487.929 357.837C487.967 358.499 487.923 359.163 487.799 359.813C487.51 360.634 487.126 361.412 486.655 362.13C485.835 363.706 485.561 365.541 485.879 367.312C486.021 368.056 486.396 368.899 487.11 368.985C487.402 368.973 487.687 368.881 487.936 368.718C488.185 368.554 488.39 368.324 488.532 368.05C489.249 366.84 489.756 365.502 490.027 364.099C491.141 359.562 491.919 354.939 492.354 350.272C492.392 349.683 492.468 349.098 492.581 348.52C492.729 347.922 492.919 347.337 493.147 346.769L494.686 342.693C495.793 339.513 497.131 336.431 498.686 333.475C497.08 332.981 495.406 332.402 493.8 331.908C493.319 331.84 492.831 331.854 492.354 331.947Z" fill="#FBBEBE"/>
<path d="M495.135 334.502C493.999 334.316 492.85 334.246 491.701 334.291C491.538 334.303 491.376 334.257 491.24 334.16C491.006 333.949 491.104 333.547 491.24 333.244L491.793 331.816C491.885 331.519 492.039 331.249 492.243 331.025C492.549 330.785 492.916 330.652 493.295 330.643C494.523 330.432 495.778 330.483 496.988 330.795C497.586 330.95 498.147 331.238 498.634 331.641C499.12 332.044 499.522 332.552 499.813 333.132C499.943 333.369 500.014 333.637 500.02 333.912C500.025 334.186 499.964 334.457 499.843 334.7C499.406 335.358 498.428 336.115 497.702 335.746C496.779 335.312 496.114 334.726 495.135 334.502Z" fill="#6C63FF"/>
<path d="M501.111 310.39C500.146 310.381 499.199 310.671 498.385 311.226C497.615 310.447 496.666 309.901 495.635 309.643C494.603 309.385 493.526 309.424 492.514 309.758C492.406 309.097 492.131 308.481 491.719 307.976C491.307 307.471 490.773 307.097 490.175 306.894C489.578 306.692 488.94 306.669 488.331 306.828C487.722 306.987 487.166 307.322 486.723 307.796C486.279 308.27 485.967 308.865 485.818 309.517C485.669 310.168 485.691 310.85 485.88 311.49C486.069 312.129 486.419 312.7 486.891 313.141C487.363 313.583 487.939 313.877 488.556 313.991C488.38 314.601 488.291 315.236 488.292 315.875C488.289 317.424 488.813 318.922 489.764 320.09C490.716 321.258 492.031 322.017 493.466 322.226C494.901 322.435 496.359 322.08 497.568 321.227C498.777 320.374 499.655 319.08 500.04 317.587C500.392 317.666 500.751 317.706 501.111 317.705C503.474 317.705 505.419 316.066 505.419 314.044C505.419 312.023 503.474 310.39 501.111 310.39Z" fill="#3F3D56"/>
<path opacity="0.1" d="M501.967 315.875C501.607 315.876 501.248 315.836 500.896 315.756C500.725 316.412 500.457 317.035 500.102 317.6C500.435 317.668 500.772 317.704 501.111 317.705C503.314 317.705 505.13 316.276 505.358 314.413C504.913 314.887 504.383 315.26 503.801 315.511C503.218 315.762 502.595 315.886 501.967 315.875Z" fill="black"/>
<path opacity="0.1" d="M495.129 320.444C494.193 320.444 493.27 320.209 492.434 319.758C491.598 319.307 490.873 318.652 490.317 317.846C489.761 317.04 489.389 316.106 489.232 315.119C489.075 314.131 489.136 313.118 489.412 312.161C488.619 312.012 487.901 311.57 487.384 310.911C486.866 310.253 486.582 309.42 486.581 308.559C486.584 308.339 486.602 308.119 486.636 307.901C486.219 308.384 485.931 308.978 485.803 309.621C485.674 310.264 485.71 310.933 485.907 311.556C486.103 312.179 486.453 312.734 486.919 313.163C487.385 313.591 487.951 313.878 488.556 313.991C488.38 314.601 488.291 315.236 488.292 315.875C488.29 317.406 488.802 318.886 489.734 320.048C490.666 321.21 491.956 321.976 493.371 322.207C494.786 322.438 496.231 322.119 497.444 321.307C498.658 320.496 499.559 319.246 499.985 317.784C499.431 318.608 498.702 319.279 497.857 319.742C497.013 320.204 496.078 320.445 495.129 320.444Z" fill="black"/>
</g>
<defs>
<clipPath id="clip0">
<rect width="632.67" height="427" fill="white" transform="translate(0.840118)"/>
</clipPath>
</defs>
</svg>
