<svg width="769" height="781" viewBox="0 0 769 781" fill="none" xmlns="http://www.w3.org/2000/svg">
<g clip-path="url(#clip0)">
<path d="M521.604 209.948C530.833 214.923 539.854 220.015 548.668 225.222" stroke="#2F2E41" stroke-miterlimit="10"/>
<path d="M349.862 179.118C390.116 188.009 434.065 203.356 478.338 225.016C510.405 240.6 541.09 258.994 570.047 279.991" stroke="#2F2E41" stroke-miterlimit="10"/>
<path d="M215.871 779.061H628.625" stroke="#3F3D56" stroke-miterlimit="10"/>
<path d="M312.195 172.538C324.292 174.057 336.885 176.252 349.862 179.118" stroke="#2F2E41" stroke-miterlimit="10"/>
<path d="M193.815 301.449C171.467 268.044 163.79 236.483 175.272 211.999C187.972 184.918 221.967 171.066 268.049 170.045" stroke="#2F2E41" stroke-miterlimit="10"/>
<path d="M664.437 376.06C683.065 406.687 688.844 435.402 678.219 458.057C668.87 477.994 647.978 490.761 619.219 496.517" stroke="#2F2E41" stroke-miterlimit="10"/>
<path d="M570.047 279.991C588.715 293.513 606.36 308.451 622.834 324.678" stroke="#2F2E41" stroke-miterlimit="10"/>
<path d="M181.441 130.897C218.538 122.757 266.542 124.204 320.231 135.013" stroke="#2F2E41" stroke-miterlimit="10"/>
<path d="M721.36 376.056C737.968 400.834 748.181 424.812 750.851 446.648" stroke="#2F2E41" stroke-miterlimit="10"/>
<path d="M548.668 225.222C565.326 235.059 581.175 245.234 596.215 255.745" stroke="#2F2E41" stroke-miterlimit="10"/>
<path d="M572.539 590.176C568.279 590.422 564.17 591.875 560.673 594.372C557.176 596.869 554.43 600.312 552.741 604.314C547.791 616.537 554.165 630.894 563.734 639.807C573.303 648.719 585.594 653.814 596.762 660.51C611.763 669.504 625.242 681.99 632.748 698.017C640.253 714.044 641.052 733.897 632.229 749.208C624.04 763.42 609.15 771.925 594.949 779.77" stroke="#3F3D56" stroke-miterlimit="10"/>
<path d="M585.151 599.917C594.81 599.917 602.641 596.032 602.641 591.24C602.641 586.448 594.81 582.563 585.151 582.563C575.492 582.563 567.662 586.448 567.662 591.24C567.662 596.032 575.492 599.917 585.151 599.917Z" fill="#57B894"/>
<path d="M599.143 657.08C608.802 657.08 616.632 653.195 616.632 648.403C616.632 643.611 608.802 639.727 599.143 639.727C589.484 639.727 581.653 643.611 581.653 648.403C581.653 653.195 589.484 657.08 599.143 657.08Z" fill="#57B894"/>
<path d="M567.162 666.266C576.821 666.266 584.652 662.382 584.652 657.59C584.652 652.798 576.821 648.913 567.162 648.913C557.503 648.913 549.672 652.798 549.672 657.59C549.672 662.382 557.503 666.266 567.162 666.266Z" fill="#57B894"/>
<path d="M617.132 714.242C626.791 714.242 634.622 710.358 634.622 705.566C634.622 700.774 626.791 696.889 617.132 696.889C607.473 696.889 599.643 700.774 599.643 705.566C599.643 710.358 607.473 714.242 617.132 714.242Z" fill="#57B894"/>
<path d="M652.111 714.242C661.771 714.242 669.601 710.358 669.601 705.566C669.601 700.774 661.771 696.889 652.111 696.889C642.452 696.889 634.622 700.774 634.622 705.566C634.622 710.358 642.452 714.242 652.111 714.242Z" fill="#57B894"/>
<path d="M478.816 253.252H488.668C488.668 253.252 497.7 324.534 491.132 331.243C484.563 337.952 466.5 342.145 464.037 331.243C461.573 320.341 464.037 280.087 464.037 280.087L478.816 253.252Z" fill="#D4D4D4"/>
<path d="M414.362 262.896C447.465 262.896 474.3 230.794 474.3 191.195C474.3 151.595 447.465 119.494 414.362 119.494C381.26 119.494 354.425 151.595 354.425 191.195C354.425 230.794 381.26 262.896 414.362 262.896Z" fill="#2F2E41"/>
<path d="M400.815 204.613C400.815 204.613 404.099 232.287 394.246 238.157C384.394 244.027 405.741 277.572 405.741 277.572L431.194 284.281L448.436 259.961L445.152 234.803C445.152 234.803 425.447 214.676 434.478 196.227L400.815 204.613Z" fill="#FFC1C7"/>
<path opacity="0.1" d="M400.815 204.613C400.815 204.613 404.099 232.287 394.246 238.157C384.394 244.027 405.741 277.572 405.741 277.572L431.194 284.281L448.436 259.961L445.152 234.803C445.152 234.803 425.447 214.676 434.478 196.227L400.815 204.613Z" fill="black"/>
<path d="M363.867 505.02C363.867 505.02 354.014 596.428 363.867 618.232C373.72 640.036 399.994 701.254 399.994 701.254L391.783 718.865L413.952 713.833L422.983 696.223C422.983 696.223 412.31 653.454 410.667 638.359C409.025 623.264 396.709 595.59 396.709 595.59L419.699 495.795L363.867 505.02Z" fill="#FFC1C7"/>
<path d="M441.868 489.74C441.868 489.74 442.689 581.987 448.436 596.296L445.152 721.249L463.215 723.712C463.215 723.712 489.489 618.886 485.384 593.728C481.279 568.569 486.205 478 486.205 478L441.868 489.74Z" fill="#FFC1C7"/>
<path d="M414.362 215.934C431.594 215.934 445.563 201.666 445.563 184.067C445.563 166.467 431.594 152.199 414.362 152.199C397.131 152.199 383.162 166.467 383.162 184.067C383.162 201.666 397.131 215.934 414.362 215.934Z" fill="#FFC1C7"/>
<path d="M520.69 501.48C520.69 501.48 498.521 516.575 489.489 505.674C480.458 494.772 369.615 512.382 355.656 509.028C341.698 505.674 363.046 452.002 363.046 424.328C363.046 403.623 370.403 372.125 374.106 357.567C375.354 352.669 376.183 349.692 376.183 349.692C376.183 349.692 384.607 325.213 383.031 315.041C382.924 314.27 382.717 313.517 382.415 312.802C382.283 312.502 382.121 312.219 381.93 311.955C377.997 306.596 366.724 267.517 362.348 250.736C361.634 248.253 361.045 245.734 360.583 243.189C360.583 240.673 390.962 233.125 398.557 232.765C406.16 232.404 408.204 243.189 408.204 243.189C410.668 244.866 422.162 274.217 422.162 274.217L432.836 246.543C432.836 246.543 432.015 240.673 431.194 240.673C430.373 240.673 443.338 232.756 443.338 232.756C443.338 232.756 456.647 242.35 464.036 240.673C471.426 238.996 488.668 254.091 488.668 254.091C488.668 254.091 458.289 332.081 470.605 348.853C482.921 365.626 520.69 501.48 520.69 501.48Z" fill="#D4D4D4"/>
<path d="M420.52 692.868C420.52 692.868 406.562 707.125 406.562 708.802L395.067 703.77C395.067 703.77 390.141 722.22 389.32 724.735C388.499 727.251 374.541 749.894 360.583 759.957C346.625 770.02 360.583 782.6 372.899 780.084C385.215 777.568 416.415 749.055 416.415 749.055C416.415 749.055 437.763 749.055 445.152 732.283C445.152 732.283 425.447 691.191 420.52 692.868Z" fill="#2F2E41"/>
<path d="M461.573 717.056C461.573 717.056 440.481 701.403 439.122 715.938C437.763 730.474 437.763 762.341 437.763 762.341C437.763 762.341 431.194 783.306 451.721 780.791C472.247 778.275 473.889 772.404 473.889 772.404L464.037 732.151V714.54L461.573 717.056Z" fill="#2F2E41"/>
<path opacity="0.1" d="M381.93 311.955C377.997 306.596 366.724 267.517 362.348 250.736H366.33C366.33 250.736 376.331 290.713 382.415 312.802C382.283 312.502 382.121 312.218 381.93 311.955Z" fill="black"/>
<path opacity="0.1" d="M436.12 367.303C436.12 367.303 424.626 368.142 382.751 359.755C379.834 359.183 376.948 358.453 374.106 357.567C375.354 352.669 376.183 349.692 376.183 349.692C376.183 349.692 384.607 325.213 383.031 315.041C384.993 322.085 386.454 326.84 386.857 327.05C388.499 327.888 441.047 337.113 448.436 340.467C455.826 343.822 436.12 367.303 436.12 367.303Z" fill="black"/>
<path opacity="0.1" d="M450.899 257.546C450.899 257.546 473.546 254.693 474.949 258.443C476.352 262.193 482.1 298.439 484.563 303.086C487.026 307.733 487.847 336.544 477.994 337.473C468.142 338.402 455.005 328.179 457.468 319.815C459.931 311.45 450.899 257.546 450.899 257.546Z" fill="black"/>
<path d="M439.405 334.597C439.405 334.597 473.889 338.79 479.637 334.597C485.384 330.404 509.195 330.404 504.268 342.145C499.342 353.885 456.647 354.724 456.647 354.724H432.015L439.405 334.597Z" fill="#FFC1C7"/>
<path d="M366.33 244.866H360.583C360.583 244.866 349.088 247.382 350.73 284.28C352.372 321.179 340.877 345.499 382.751 353.885C424.626 362.271 436.12 361.432 436.12 361.432C436.12 361.432 455.826 337.951 448.436 334.597C441.047 331.243 388.499 322.018 386.857 321.179C385.215 320.341 366.33 244.866 366.33 244.866Z" fill="#D4D4D4"/>
<path d="M474.318 261.418C474.318 261.418 459.931 206.29 448.436 206.29C436.941 206.29 423.804 208.806 433.657 219.708C443.51 230.609 455.826 242.35 456.647 248.22C457.468 254.091 460.752 262.477 460.752 262.477L474.318 261.418Z" fill="#FFC1C7"/>
<path d="M454.184 257.546C454.184 257.546 476.83 254.693 478.234 258.443C479.637 262.193 485.384 298.439 487.847 303.086C490.31 307.733 491.131 336.544 481.279 337.473C471.426 338.402 458.289 328.179 460.752 319.815C463.215 311.45 454.184 257.546 454.184 257.546Z" fill="#D4D4D4"/>
<path d="M406.152 184.067C422.476 184.067 435.71 170.55 435.71 153.877C435.71 137.203 422.476 123.687 406.152 123.687C389.827 123.687 376.594 137.203 376.594 153.877C376.594 170.55 389.827 184.067 406.152 184.067Z" fill="#2F2E41"/>
<path d="M525.26 495.156C479.391 487.434 427.499 470.649 375.153 445.04C315.552 415.881 265.047 380.021 229.06 343.779" stroke="#2F2E41" stroke-miterlimit="10"/>
<path d="M339.282 460.813C298.246 439.098 261.095 414.957 229.059 389.822" stroke="#2F2E41" stroke-miterlimit="10"/>
<path d="M49.1972 121.437C76.368 121.437 98.3944 98.9399 98.3944 71.1883C98.3944 43.4367 76.368 20.9396 49.1972 20.9396C22.0263 20.9396 0 43.4367 0 71.1883C0 98.9399 22.0263 121.437 49.1972 121.437Z" fill="#D4D4D4"/>
<path d="M60.7373 100.965C87.9081 100.965 109.934 78.4682 109.934 50.7166C109.934 22.965 87.9081 0.467896 60.7373 0.467896C33.5664 0.467896 11.5401 22.965 11.5401 50.7166C11.5401 78.4682 33.5664 100.965 60.7373 100.965Z" stroke="#2F2E41" stroke-miterlimit="10"/>
<path d="M733.204 281.923C749.012 281.923 761.828 268.833 761.828 252.687C761.828 236.541 749.012 223.451 733.204 223.451C717.395 223.451 704.58 236.541 704.58 252.687C704.58 268.833 717.395 281.923 733.204 281.923Z" fill="#F2F2F2"/>
<path d="M739.918 270.012C755.727 270.012 768.542 256.923 768.542 240.776C768.542 224.63 755.727 211.541 739.918 211.541C724.11 211.541 711.294 224.63 711.294 240.776C711.294 256.923 724.11 270.012 739.918 270.012Z" stroke="#2F2E41" stroke-miterlimit="10"/>
<path d="M211.045 599.465C233.77 599.465 252.192 580.65 252.192 557.439C252.192 534.229 233.77 515.413 211.045 515.413C188.321 515.413 169.899 534.229 169.899 557.439C169.899 580.65 188.321 599.465 211.045 599.465Z" fill="#F2F2F2"/>
<path d="M220.697 582.344C243.422 582.344 261.844 563.528 261.844 540.317C261.844 517.107 243.422 498.291 220.697 498.291C197.972 498.291 179.55 517.107 179.55 540.317C179.55 563.528 197.972 582.344 220.697 582.344Z" stroke="#2F2E41" stroke-miterlimit="10"/>
</g>
<defs>
<clipPath id="clip0">
<rect width="769" height="781" fill="white"/>
</clipPath>
</defs>
</svg>
