<svg width="850" height="648" viewBox="0 0 850 648" fill="none" xmlns="http://www.w3.org/2000/svg">
<path d="M418.457 648C649.564 648 836.913 629.288 836.913 606.205C836.913 583.122 649.564 564.409 418.457 564.409C187.349 564.409 0 583.122 0 606.205C0 629.288 187.349 648 418.457 648Z" fill="#3F3D56"/>
<path opacity="0.1" d="M294.075 630.737C403.004 630.737 491.309 617.109 491.309 600.299C491.309 583.488 403.004 569.861 294.075 569.861C185.145 569.861 96.8403 583.488 96.8403 600.299C96.8403 617.109 185.145 630.737 294.075 630.737Z" fill="black"/>
<path d="M195.786 236.907C103.157 236.907 28.0748 313.701 28.0748 408.422C28.0748 503.143 103.193 579.937 195.786 579.937C207.198 579.942 218.581 578.76 229.76 576.412C213.802 549.582 205.386 518.773 205.435 487.37C205.435 404.56 262.828 335.453 339.163 319.389C324.213 294.196 303.165 273.37 278.05 258.922C252.935 244.474 224.602 236.892 195.786 236.907Z" fill="#8F35B9"/>
<path opacity="0.1" d="M44.9996 413.356C44.9996 318.635 120.091 241.85 212.711 241.85C221.727 241.851 230.729 242.589 239.631 244.057C225.335 240.119 210.592 238.13 195.786 238.142C103.157 238.142 28.0748 314.937 28.0748 409.658C28.0748 495.066 89.1019 565.854 168.991 578.974C133.401 569.137 101.971 547.584 79.5589 517.648C57.147 487.711 45.0014 451.059 44.9996 413.356Z" fill="black"/>
<path d="M338.364 318.144C362.999 302.856 383.365 281.331 397.494 255.646C411.624 229.962 419.039 200.985 419.025 171.515C419.025 76.7944 343.943 0 251.314 0C158.685 0 83.6114 76.7944 83.6114 171.515C83.607 183.189 84.762 194.834 87.0585 206.269C113.29 189.94 143.417 181.328 174.126 181.383C255.081 181.355 322.656 240.087 338.364 318.144Z" fill="#A923E8"/>
<path opacity="0.1" d="M404.57 171.515C404.59 198.376 398.432 224.864 386.592 248.841C374.753 272.818 357.566 293.611 336.418 309.54C337.137 312.384 337.804 315.246 338.39 318.144C363.026 302.856 383.392 281.331 397.521 255.646C411.65 229.962 419.066 200.985 419.052 171.515C419.052 76.7944 343.97 0 251.34 0C248.915 0 246.507 0.0635969 244.109 0.172628C333.344 4.05232 404.57 79.2748 404.57 171.515Z" fill="black"/>
<path d="M331.043 395.275C328.296 396.709 325.685 398.4 323.242 400.326C320.788 402.269 318.909 404.87 317.814 407.841C316.295 404.615 315.468 401.108 314.455 397.682C312.516 391.468 310.226 385.373 307.597 379.429C311.926 377.739 315.677 374.792 318.391 370.952C323.722 376.358 329.15 381.991 331.789 389.123C332.242 390.359 333.566 391.677 333.877 392.758C334.294 394.366 332.198 394.62 331.043 395.275Z" fill="#FFBFC5"/>
<path d="M184.236 570.342C184.236 610.884 212.835 615.182 248.124 615.182C283.413 615.182 312.003 610.884 312.003 570.342C312.003 529.801 283.404 514.4 248.124 514.4C212.844 514.4 184.236 529.81 184.236 570.342Z" fill="#3F3D56"/>
<path d="M380.964 526.957C386.761 528.827 392.166 531.785 396.903 535.68C397.259 535.907 397.516 536.264 397.623 536.679C397.747 537.588 396.521 537.997 395.633 538.26C392.967 539.032 391.341 541.549 389.413 543.512C387.486 545.474 384.394 547.028 382.146 545.456C381.556 544.993 381.04 544.438 380.618 543.812L371.129 531.164C374.346 529.322 377.729 527.8 381.231 526.621" fill="#F1F1F1"/>
<path d="M398.031 529.592C399.293 530.9 399.808 532.79 401.07 534.135C401.897 534.946 402.845 535.617 403.877 536.125L411.145 540.214C412.272 540.897 413.463 541.466 414.699 541.913C416.066 542.311 417.458 542.615 418.865 542.821C420.881 543.22 422.852 543.828 424.747 544.638C426.168 545.238 427.759 546.265 427.75 547.837C427.688 548.609 427.375 549.339 426.861 549.908C424.001 553.597 418.928 554.451 414.343 554.915C404.428 555.987 394.282 556.786 384.589 554.397C382.696 554.04 380.906 553.248 379.356 552.08C376.433 549.599 375.803 545.084 376.94 541.367C377.248 539.939 378.073 538.683 379.25 537.851C380.787 536.943 382.697 537.37 384.465 537.233C386.327 536.965 388.13 536.371 389.795 535.48C390.906 534.971 392.176 534.308 392.461 532.963C392.745 531.618 391.244 530.455 391.572 529.329C392.194 526.794 396.876 528.384 398.031 529.592Z" fill="#575A89"/>
<path opacity="0.1" d="M398.031 529.592C399.293 530.9 399.808 532.79 401.07 534.135C401.897 534.946 402.845 535.617 403.877 536.125L411.145 540.214C412.272 540.897 413.463 541.466 414.699 541.913C416.066 542.311 417.458 542.615 418.865 542.821C420.881 543.22 422.852 543.828 424.747 544.638C426.168 545.238 427.759 546.265 427.75 547.837C427.688 548.609 427.375 549.339 426.861 549.908C424.001 553.597 418.928 554.451 414.343 554.915C404.428 555.987 394.282 556.786 384.589 554.397C382.696 554.04 380.906 553.248 379.356 552.08C376.433 549.599 375.803 545.084 376.94 541.367C377.248 539.939 378.073 538.683 379.25 537.851C380.787 536.943 382.697 537.37 384.465 537.233C386.327 536.965 388.13 536.371 389.795 535.48C390.906 534.971 392.176 534.308 392.461 532.963C392.745 531.618 391.244 530.455 391.572 529.329C392.194 526.794 396.876 528.384 398.031 529.592Z" fill="black"/>
<path d="M414.885 570.17L417.941 572.232C418.875 572.743 419.643 573.519 420.154 574.467C420.82 576.058 419.923 577.857 418.927 579.256C415.942 583.433 411.865 586.664 407.165 588.578C405.535 589.272 403.813 589.71 402.056 589.877C401.657 589.944 401.247 589.894 400.874 589.732C399.941 589.223 400.075 587.869 400.066 586.788C400.066 583.672 397.729 581.137 395.624 578.838C393.518 576.539 391.439 573.722 391.919 570.66C392.358 568.841 393.281 567.181 394.584 565.863C395.729 564.386 397.075 563.086 398.582 562.002C400.741 560.557 401.496 561.338 403.522 562.656C407.33 565.133 411.118 567.638 414.885 570.17Z" fill="#F1F1F1"/>
<path d="M404.97 585.38C405.8 585.594 406.668 585.606 407.503 585.413C408.338 585.221 409.117 584.829 409.777 584.271C411.09 583.145 412.153 581.745 412.895 580.164C413.641 578.766 414.288 577.314 414.832 575.821C415.471 574.068 416.058 572.132 417.568 571.069C419.345 569.779 421.957 570.288 423.787 571.533C425.618 572.778 427.003 574.622 428.576 576.221C432.281 580.001 437.158 582.39 442.169 583.953C447.18 585.516 452.377 586.297 457.521 587.306C458.554 587.447 459.553 587.776 460.471 588.278C462.55 589.577 463.252 592.476 462.666 594.893C462.079 597.31 460.542 599.308 458.863 601.126C457.464 602.821 455.729 604.193 453.772 605.151C452.122 605.766 450.384 606.104 448.628 606.15C440.107 606.738 431.547 606.053 423.219 604.115C420.162 603.261 417.051 602.626 413.908 602.216C411.998 602.043 410.061 602.098 408.151 601.962C404.335 601.693 400.603 600.688 397.152 599C396.313 598.683 395.607 598.079 395.153 597.291C394.902 596.569 394.85 595.789 395.002 595.038L396.272 583.644C396.388 582.654 396.708 581.418 397.676 581.264C398.644 581.109 399.257 582.081 399.835 582.827C400.956 584.196 402.49 585.147 404.196 585.528C405.902 585.91 407.684 585.701 409.261 584.934" fill="#575A89"/>
<path d="M331.194 441.695C336.782 441.05 343.268 440.941 347.052 445.202C349.371 447.819 350.073 451.48 350.873 454.906C352.127 460.669 354.166 466.223 356.932 471.406C358.709 474.622 360.868 477.63 362.263 481.046C363.657 484.462 364.182 488.315 364.999 492.031C368.273 506.605 376.269 519.618 387.69 528.956C385.673 534.562 379.836 537.769 374.159 539.205C372.789 539.669 371.317 539.716 369.921 539.341C368.864 538.873 367.925 538.165 367.176 537.27C364.523 534.337 362.051 531.239 359.775 527.993C351.592 516.817 343.294 505.414 338.834 492.231C337.271 487.597 335.707 482.236 331.309 480.265C328.804 479.156 325.934 479.501 323.242 479.974C317.227 481.014 311.307 482.567 305.544 484.617C299.396 486.806 292.36 489.496 286.736 486.152C283.369 484.144 281.405 480.301 280.632 476.394C279.86 472.487 280.25 468.453 280.632 464.491C280.67 462.706 281.088 460.951 281.859 459.349C282.637 458.149 283.636 457.116 284.799 456.305C289.823 452.413 295.411 449.348 301.36 447.219C307.037 445.166 313.149 444.493 319.075 443.466C323.097 442.752 327.137 442.161 331.194 441.695Z" fill="#575A89"/>
<path opacity="0.1" d="M331.194 441.695C336.782 441.05 343.268 440.941 347.052 445.202C349.371 447.819 350.073 451.48 350.873 454.906C352.127 460.669 354.166 466.223 356.932 471.406C358.709 474.622 360.868 477.63 362.263 481.046C363.657 484.462 364.182 488.315 364.999 492.031C368.273 506.605 376.269 519.618 387.69 528.956C385.673 534.562 379.836 537.769 374.159 539.205C372.789 539.669 371.317 539.716 369.921 539.341C368.864 538.873 367.925 538.165 367.176 537.27C364.523 534.337 362.051 531.239 359.775 527.993C351.592 516.817 343.294 505.414 338.834 492.231C337.271 487.597 335.707 482.236 331.309 480.265C328.804 479.156 325.934 479.501 323.242 479.974C317.227 481.014 311.307 482.567 305.544 484.617C299.396 486.806 292.36 489.496 286.736 486.152C283.369 484.144 281.405 480.301 280.632 476.394C279.86 472.487 280.25 468.453 280.632 464.491C280.67 462.706 281.088 460.951 281.859 459.349C282.637 458.149 283.636 457.116 284.799 456.305C289.823 452.413 295.411 449.348 301.36 447.219C307.037 445.166 313.149 444.493 319.075 443.466C323.097 442.752 327.137 442.161 331.194 441.695Z" fill="black"/>
<path d="M363.195 482.927C365.805 484.261 368.201 485.991 370.303 488.06C372.569 490.532 373.946 493.721 375.118 496.901C375.579 497.985 375.861 499.139 375.954 500.317C375.996 500.906 375.907 501.496 375.693 502.044C375.479 502.592 375.146 503.083 374.719 503.479C373.686 504.172 372.457 504.492 371.227 504.388C369.61 504.388 367.984 504.388 366.367 504.26C365.382 504.253 364.407 504.062 363.489 503.697C362.648 503.258 361.89 502.671 361.25 501.962C358.4 499.256 356.066 496.034 354.364 492.458C353.192 489.814 351.255 483.708 353.103 480.955C354.951 478.202 361.188 481.755 363.195 482.927Z" fill="#FFBFC5"/>
<path d="M284.808 481.982C293.08 484.708 301.884 484.998 310.529 485.825C325.069 487.217 339.432 490.121 353.396 494.493C356.257 495.402 359.18 496.383 361.481 498.336C363.351 500.105 364.934 502.166 366.172 504.442C368.443 507.98 370.499 511.658 372.329 515.454C373.901 518.889 375.101 522.487 376.558 525.967C381.467 537.624 389.229 547.79 399.098 555.487C400.874 556.895 402.909 558.422 403.371 560.684C403.581 562.144 403.348 563.634 402.705 564.955C400.572 570.034 396.148 573.732 391.501 576.557C389.511 577.775 387.308 579.001 386.331 581.164C379.276 578.184 374.026 571.824 369.663 565.427C365.301 559.031 361.419 552.134 355.821 546.828C353.36 544.484 350.562 542.449 348.616 539.632C345.658 535.343 344.858 529.474 340.878 526.167C336.898 522.859 331.105 523.286 325.961 523.804C299.605 526.432 273.048 526.128 246.756 522.896C241.292 522.232 235.677 521.378 230.942 518.498C226.206 515.618 222.519 510.239 223.186 504.651C223.817 499.418 228.072 495.274 232.825 493.23C237.579 491.186 242.82 490.813 247.929 490.223C260.643 488.787 272.779 486.425 284.808 481.982Z" fill="#575A89"/>
<path d="M209.211 492.839C209.859 488.406 211.538 484.208 212.596 479.856C213.123 477.117 213.794 474.408 214.603 471.742C214.603 471.66 214.666 471.587 214.692 471.515C214.96 471.493 215.22 471.41 215.454 471.274C215.687 471.137 215.888 470.949 216.043 470.724C216.188 470.337 216.228 469.916 216.158 469.507C216.127 469.074 216.127 468.64 216.158 468.208C217.89 465.24 219.782 462.373 221.826 459.621C225.38 454.433 228.507 448.918 231.599 443.412C234.14 438.869 236.681 434.381 238.778 429.638C240.359 426.085 241.683 422.369 243.424 418.934C249.644 406.578 260.767 397.464 272.743 390.923C284.24 384.644 296.669 380.419 308.752 375.422C309.059 375.738 309.341 376.078 309.596 376.439C316.126 385.571 316.828 397.564 319.52 408.54C320.603 412.974 322.052 417.39 322.052 421.951C322.052 428.693 318.898 434.962 315.761 440.895C312.821 446.483 309.791 452.071 305.891 457.005C304.043 459.349 302.008 461.547 300.152 463.864C292.529 473.414 288.131 485.162 283.849 496.692C281.379 503.37 277.327 509.285 274.609 515.863C273.56 518.389 272.956 521.106 271.641 523.505C270.327 525.903 268.043 527.993 265.36 528.047C264.575 528.023 263.796 527.898 263.041 527.675C253.331 525.122 245.201 518.589 237.134 512.465C235.686 511.375 234.238 510.303 232.692 509.321C231.146 508.34 229.583 507.441 228.001 506.596L224.394 504.569C220.467 502.371 216.522 500.163 212.427 498.3C211.19 497.806 210.001 497.198 208.873 496.483C208.885 495.261 208.998 494.042 209.211 492.839Z" fill="#3F3D56"/>
<path d="M336.151 394.511C348.506 394.511 358.522 384.268 358.522 371.633C358.522 358.998 348.506 348.755 336.151 348.755C323.796 348.755 313.78 358.998 313.78 371.633C313.78 384.268 323.796 394.511 336.151 394.511Z" fill="#FFBFC5"/>
<path d="M351.21 360.93C351.755 361.893 352.575 362.662 353.559 363.135C354.544 363.607 355.646 363.76 356.719 363.574C357.786 363.355 358.797 362.907 359.683 362.26C360.57 361.614 361.313 360.782 361.863 359.821C362.951 357.892 363.601 355.737 363.764 353.516C363.951 351.78 363.924 349.881 362.831 348.527C362.001 347.696 361.043 347.009 359.997 346.492C358.549 345.584 357.332 344.339 356.443 342.858C355.821 341.795 355.368 340.641 354.809 339.551C352.774 335.598 348.812 332.382 344.449 332.527C342.353 332.6 340.354 333.436 338.284 333.781C331.345 335.026 323.811 331.273 317.37 334.199C315.788 334.987 314.318 335.989 312.998 337.179C311.186 338.712 309.445 340.323 307.774 342.013C306.324 343.276 305.227 344.909 304.594 346.747C303.705 350.108 305.793 353.861 304.469 357.059C304.02 357.976 303.481 358.843 302.861 359.649C301.404 361.838 302.986 370.388 302.861 373.032C302.681 374.316 303 375.621 303.75 376.667C304.807 377.875 306.575 377.975 308.192 377.993H311.097C311.531 378.026 311.967 377.98 312.385 377.857C312.957 377.601 313.459 377.208 313.851 376.712C316.268 374.104 316.783 365.591 320.293 365.627C320.828 365.591 321.36 365.731 321.812 366.027C322.443 366.499 322.629 367.381 323.082 368.035C323.597 368.658 324.293 369.095 325.069 369.281C325.845 369.468 326.659 369.394 327.391 369.071C328.84 368.383 330.1 367.341 331.061 366.036C332.015 364.733 333.174 363.6 334.49 362.683C336.364 361.566 338.479 361.084 340.3 359.821C341.82 358.767 342.681 357.241 344.05 356.078C345.418 354.915 346.573 355.078 348.03 355.851C350.135 357.041 350.224 358.931 351.21 360.93Z" fill="#3F3D56"/>
<path opacity="0.1" d="M299.521 401.235C304.743 400.473 310.066 400.907 315.104 402.507C316.786 402.904 318.305 403.828 319.449 405.151C320.103 406.15 320.528 407.286 320.692 408.476C321.72 413.95 321.058 419.614 318.8 424.686C318.641 424.939 318.536 425.223 318.492 425.521C318.447 425.818 318.464 426.122 318.542 426.412C318.772 426.776 319.075 427.086 319.431 427.321C319.744 427.631 319.99 428.005 320.152 428.418C320.314 428.832 320.388 429.276 320.371 429.721C320.353 430.167 320.243 430.603 320.049 431.002C319.855 431.401 319.581 431.753 319.244 432.036C318.827 432.345 318.276 432.618 318.196 433.136C318.116 433.654 318.631 434.153 319.04 434.553C319.636 435.15 320.075 435.891 320.317 436.707C320.56 437.523 320.597 438.388 320.426 439.223C320.206 439.893 320.054 440.584 319.973 441.286C320.061 442.147 320.312 442.983 320.71 443.748C321.389 445.476 321.619 447.354 321.376 449.2C321.161 450.071 321.14 450.981 321.314 451.862C321.564 452.444 321.899 452.983 322.309 453.461C323.917 455.678 324.264 459.385 321.936 460.73C322.934 461.255 323.746 462.085 324.26 463.104C324.775 464.124 324.965 465.282 324.806 466.417C326.201 465.663 327.889 466.636 329.053 467.726C330.216 468.816 331.398 470.161 332.971 470.243C334.072 470.297 335.236 469.716 336.231 470.179C337.759 470.879 337.706 473.414 339.208 474.168C340.522 474.84 342.361 473.75 343.481 474.722C343.872 475.058 344.067 475.576 344.449 475.93C345.293 476.73 346.626 476.394 347.781 476.339C350.509 476.23 353.023 478.157 354.435 480.501C355.848 482.845 356.354 485.707 356.719 488.469C357.019 489.987 356.988 491.553 356.63 493.057C356.441 493.805 356.042 494.48 355.481 494.997C354.92 495.514 354.223 495.85 353.476 495.965C339.749 496.874 326.201 493.503 312.83 490.177C308.903 489.196 304.914 488.051 301.635 485.634C298.659 483.426 296.473 480.319 294.341 477.266C290.405 471.624 286.443 465.945 283.627 459.648C280.002 451.553 278.385 442.685 276.803 433.917C276.258 431.568 276.063 429.148 276.226 426.739C276.704 423.923 277.758 421.242 279.318 418.871C281.199 415.73 283.276 412.716 285.537 409.848C288.975 405.514 294.119 402.025 299.521 401.235Z" fill="black"/>
<path d="M300.418 400.326C305.644 399.564 310.97 400.001 316.01 401.608C317.693 401.997 319.213 402.919 320.355 404.242C321.005 405.243 321.43 406.379 321.599 407.568C322.622 413.041 321.96 418.704 319.706 423.777C319.547 424.03 319.442 424.315 319.398 424.612C319.353 424.91 319.371 425.213 319.449 425.504C319.678 425.868 319.981 426.177 320.337 426.412C320.65 426.722 320.896 427.096 321.058 427.51C321.22 427.923 321.294 428.367 321.277 428.813C321.259 429.258 321.15 429.694 320.956 430.093C320.761 430.492 320.487 430.845 320.15 431.128C319.733 431.437 319.182 431.709 319.102 432.227C319.022 432.745 319.537 433.245 319.99 433.645C320.586 434.241 321.026 434.982 321.268 435.798C321.51 436.614 321.547 437.48 321.376 438.315C321.156 438.984 321.004 439.676 320.923 440.377C321.009 441.238 321.256 442.074 321.652 442.84C322.337 444.566 322.57 446.445 322.327 448.291C322.052 449.016 321.995 449.808 322.161 450.567C322.327 451.325 322.709 452.016 323.26 452.552C324.868 454.769 325.215 458.476 322.887 459.876C323.884 460.398 324.697 461.226 325.212 462.245C325.726 463.263 325.917 464.42 325.756 465.554C327.151 464.8 328.839 465.772 330.003 466.863C331.167 467.953 332.349 469.298 333.921 469.38C335.023 469.434 336.178 468.853 337.182 469.316C338.71 470.025 338.657 472.551 340.158 473.314C341.473 473.977 343.312 472.887 344.432 473.859C344.822 474.195 345.018 474.713 345.4 475.067C346.244 475.867 347.577 475.531 348.732 475.476C351.459 475.367 353.973 477.293 355.386 479.638C356.672 482.106 357.449 484.818 357.669 487.606C357.954 489.11 357.924 490.658 357.58 492.149C357.392 492.897 356.992 493.571 356.431 494.088C355.87 494.605 355.173 494.942 354.427 495.056C340.7 495.965 327.151 492.594 313.78 489.269C309.853 488.287 305.855 487.143 302.586 484.726C299.61 482.527 297.424 479.41 295.292 476.358C291.356 470.724 287.394 465.046 284.577 458.749C280.952 450.644 279.335 441.776 277.754 433.018C277.208 430.665 277.014 428.242 277.176 425.831C277.63 423.018 278.656 420.334 280.188 417.953C282.064 414.812 284.142 411.801 286.407 408.94C289.881 404.588 295.025 401.108 300.418 400.326Z" fill="#3F3D56"/>
<path d="M807.755 239.969C810.156 239.501 812.438 238.534 814.46 237.128C816.481 235.722 818.199 233.907 819.507 231.795C820.815 229.682 821.685 227.318 822.064 224.848C822.442 222.378 822.321 219.855 821.708 217.435C821.094 215.015 820.002 212.749 818.497 210.778C816.993 208.807 815.11 207.173 812.963 205.976C810.817 204.779 808.453 204.046 806.018 203.821C803.583 203.597 801.129 203.886 798.808 204.67C805.768 214.988 808.937 227.492 807.755 239.969Z" fill="#F1F1F1"/>
<path d="M835.465 232.582C837.867 232.114 840.149 231.147 842.17 229.741C844.192 228.336 845.91 226.52 847.218 224.408C848.526 222.296 849.396 219.931 849.774 217.461C850.153 214.991 850.031 212.468 849.418 210.048C848.805 207.628 847.712 205.362 846.208 203.391C844.704 201.42 842.82 199.786 840.674 198.589C838.527 197.393 836.164 196.659 833.729 196.435C831.294 196.21 828.84 196.499 826.519 197.283C833.479 207.602 836.648 220.105 835.465 232.582Z" fill="#F1F1F1"/>
<path d="M807.755 239.969C803.298 240.837 798.686 239.938 794.854 237.456C791.021 234.975 788.256 231.095 787.117 226.604C785.979 222.113 786.554 217.348 788.725 213.275C790.896 209.201 794.501 206.125 798.808 204.67C792.777 195.738 784.21 188.914 774.266 185.12C764.322 181.326 753.478 180.745 743.2 183.454C764.649 212.759 774.514 249.252 770.831 285.662C780.735 282.672 789.541 276.725 796.119 268.585C802.698 260.444 806.749 250.48 807.755 239.969Z" fill="#F1F1F1"/>
<path d="M488.084 255.07C478.088 257.258 468.948 262.417 461.809 269.9C454.671 277.382 449.854 286.855 447.962 297.128C452.263 297.034 456.452 298.53 459.761 301.342C463.07 304.153 465.276 308.091 465.974 312.432C466.671 316.773 465.814 321.225 463.56 324.972C461.306 328.719 457.805 331.508 453.701 332.827C459.579 343.573 468.932 351.891 480.155 356.349C491.378 360.808 503.769 361.13 515.199 357.259C493.941 327.883 484.262 291.406 488.084 255.07Z" fill="#F1F1F1"/>
<path d="M447.98 297.128C445.414 297.175 442.889 297.787 440.575 298.921C438.261 300.055 436.213 301.685 434.57 303.7C432.927 305.716 431.728 308.069 431.053 310.601C430.379 313.132 430.245 315.783 430.661 318.372C431.078 320.961 432.034 323.429 433.466 325.606C434.897 327.784 436.77 329.621 438.958 330.992C441.145 332.363 443.596 333.237 446.143 333.554C448.69 333.87 451.274 333.622 453.719 332.827C447.786 321.979 445.755 309.348 447.98 297.128Z" fill="#F1F1F1"/>
<path d="M415.294 305.033C412.728 305.08 410.203 305.691 407.889 306.825C405.575 307.959 403.527 309.589 401.884 311.605C400.241 313.62 399.042 315.974 398.367 318.506C397.693 321.037 397.559 323.688 397.976 326.277C398.392 328.866 399.348 331.333 400.78 333.511C402.211 335.689 404.085 337.525 406.272 338.897C408.46 340.268 410.91 341.142 413.457 341.458C416.004 341.775 418.588 341.527 421.033 340.732C415.105 329.882 413.075 317.253 415.294 305.033Z" fill="#F1F1F1"/>
<path d="M688.952 138.651L660.158 174.732C661.54 176.947 662.755 179.268 663.791 181.673L695.491 141.959C693.314 140.75 691.155 139.642 688.952 138.651Z" fill="#F1F1F1"/>
<path d="M770.831 285.662C764.237 287.622 757.329 288.223 750.507 287.43C743.684 286.638 737.084 284.467 731.088 281.045C725.093 277.622 719.822 273.016 715.581 267.493C711.34 261.971 708.214 255.641 706.385 248.873C704.555 242.105 704.058 235.033 704.923 228.067C705.787 221.101 707.996 214.38 711.421 208.294C714.846 202.208 719.419 196.878 724.874 192.614C730.33 188.35 736.559 185.236 743.2 183.454C731.71 167.834 717.28 154.723 700.759 144.893L708.56 151.408L668.225 201.944C668.444 211.917 665.908 221.75 660.908 230.316C655.909 238.881 648.648 245.83 639.96 250.365C631.273 254.9 621.51 256.837 611.795 255.953C602.079 255.069 592.804 251.401 585.036 245.369C577.267 239.337 571.319 231.187 567.876 221.854C564.433 212.52 563.634 202.383 565.571 192.607C567.508 182.83 572.102 173.811 578.826 166.584C585.549 159.358 594.13 154.217 603.581 151.753L600.339 149.028L618.996 125.668C585.817 128.162 554.545 142.477 530.624 166.122C506.704 189.767 491.65 221.243 488.084 255.07C501.066 252.195 514.632 254.527 525.983 261.583C537.333 268.64 545.602 279.883 549.082 292.993C552.563 306.102 550.991 320.078 544.689 332.037C538.388 343.995 527.838 353.024 515.217 357.259C532.277 380.807 555.897 398.531 582.981 408.108C610.064 417.685 639.345 418.667 666.984 410.925C694.622 403.184 719.328 387.08 737.86 364.727C756.391 342.373 767.884 314.813 770.831 285.662ZM616.908 381.782C608.961 375.151 603.114 366.258 600.109 356.229C597.103 346.2 597.073 335.484 600.023 325.438C602.973 315.391 608.769 306.465 616.68 299.788C624.59 293.11 634.259 288.982 644.464 287.924C654.669 286.867 664.951 288.928 674.01 293.847C683.069 298.766 690.499 306.323 695.359 315.56C700.219 324.797 702.291 335.301 701.313 345.743C700.336 356.185 696.353 366.096 689.867 374.223C681.172 385.118 668.6 392.036 654.918 393.453C641.236 394.871 627.564 390.673 616.908 381.782Z" fill="#F1F1F1"/>
<path d="M648.128 126.54C645.315 126.158 642.489 125.855 639.652 125.631L620.035 150.218C622.788 150.407 625.522 150.823 628.209 151.463L648.128 126.54Z" fill="#F1F1F1"/>
<path d="M649.434 162.275L673.306 132.364C670.854 131.546 668.39 130.801 665.915 130.129L643.641 158.032C645.572 159.25 647.424 160.595 649.185 162.057L649.434 162.275Z" fill="#F1F1F1"/>
</svg>
